<svg width="1095" height="1184" viewBox="0 0 1095 1184" fill="none" xmlns="http://www.w3.org/2000/svg">
<g clip-path="url(#clip0_1_25)" filter="url(#filter0_ddddd_1_25)">
<mask id="path-1-outside-1_1_25" maskUnits="userSpaceOnUse" x="246" y="204" width="722" height="204" fill="black">
<rect fill="white" x="246" y="204" width="722" height="204"/>
<path d="M321.1 257.4V340.8C321.1 353.933 318.367 364.833 312.9 373.5C307.5 382.167 299.567 389.067 289.1 394.2C278.633 399.4 265.867 403.367 250.8 406.1L247.2 388.9C257.667 386.9 266.767 384.133 274.5 380.6C282.233 377.067 288.2 372.233 292.4 366.1C296.6 359.967 298.7 352.033 298.7 342.3V273.8H257V257.4H321.1ZM303.6 205.7C307.933 205.7 311.467 207.033 314.2 209.7C316.933 212.367 318.3 215.7 318.3 219.7C318.3 223.7 316.933 227.067 314.2 229.8C311.467 232.533 307.933 233.9 303.6 233.9C299.267 233.9 295.733 232.533 293 229.8C290.333 227.067 289 223.7 289 219.7C289 215.7 290.333 212.367 293 209.7C295.733 207.033 299.267 205.7 303.6 205.7ZM390.122 348.5C397.122 348.5 402.689 347.267 406.822 344.8C410.955 342.267 413.022 338.8 413.022 334.4C413.022 331.533 412.422 329.1 411.222 327.1C410.022 325.033 407.622 323.167 404.022 321.5C400.422 319.767 394.955 317.967 387.622 316.1C380.689 314.3 374.589 312.167 369.322 309.7C364.122 307.233 360.089 304.033 357.222 300.1C354.355 296.167 352.922 291.1 352.922 284.9C352.922 278.833 354.622 273.533 358.022 269C361.422 264.467 366.289 260.933 372.622 258.4C379.022 255.867 386.522 254.6 395.122 254.6C403.989 254.6 411.722 255.767 418.322 258.1C424.922 260.433 430.555 263.333 435.222 266.8L425.822 280.9C421.689 278.167 417.155 275.933 412.222 274.2C407.355 272.467 401.855 271.6 395.722 271.6C388.589 271.6 383.455 272.667 380.322 274.8C377.255 276.933 375.722 279.767 375.722 283.3C375.722 285.9 376.489 288.1 378.022 289.9C379.622 291.633 382.355 293.267 386.222 294.8C390.089 296.267 395.555 298 402.622 300C409.489 301.867 415.455 304.067 420.522 306.6C425.655 309.133 429.622 312.5 432.422 316.7C435.289 320.833 436.722 326.233 436.722 332.9C436.722 340.5 434.522 346.733 430.122 351.6C425.789 356.4 420.055 359.967 412.922 362.3C405.855 364.567 398.255 365.7 390.122 365.7C380.322 365.7 371.855 364.3 364.722 361.5C357.589 358.633 351.589 355.067 346.722 350.8L358.622 337.2C362.755 340.533 367.489 343.267 372.822 345.4C378.155 347.467 383.922 348.5 390.122 348.5ZM497.944 254.6C508.277 254.6 516.977 256.9 524.044 261.5C531.11 266.1 536.444 272.533 540.044 280.8C543.71 289.067 545.544 298.8 545.544 310C545.544 321.133 543.677 330.9 539.944 339.3C536.277 347.633 530.877 354.133 523.744 358.8C516.677 363.4 508.044 365.7 497.844 365.7C487.644 365.7 478.977 363.467 471.844 359C464.777 354.467 459.377 348.033 455.644 339.7C451.977 331.367 450.144 321.533 450.144 310.2C450.144 299.2 451.977 289.533 455.644 281.2C459.377 272.867 464.81 266.367 471.944 261.7C479.077 256.967 487.744 254.6 497.944 254.6ZM497.944 272C489.877 272 483.81 275.1 479.744 281.3C475.677 287.433 473.644 297.067 473.644 310.2C473.644 323.267 475.644 332.9 479.644 339.1C483.71 345.3 489.777 348.4 497.844 348.4C505.91 348.4 511.944 345.3 515.944 339.1C520.01 332.9 522.044 323.2 522.044 310C522.044 297 520.044 287.433 516.044 281.3C512.044 275.1 506.01 272 497.944 272ZM559.566 363V257.4H578.866L580.566 271.1C584.966 265.7 590.166 261.6 596.166 258.8C602.166 256 608.332 254.6 614.666 254.6C624.532 254.6 631.899 257.367 636.766 262.9C641.699 268.367 644.166 276.067 644.166 286V363H621.766V297.1C621.766 290.967 621.399 286.033 620.666 282.3C619.932 278.567 618.466 275.867 616.266 274.2C614.132 272.533 610.932 271.7 606.666 271.7C603.266 271.7 600.032 272.433 596.966 273.9C593.899 275.367 591.099 277.3 588.566 279.7C586.032 282.033 583.832 284.533 581.966 287.2V363H559.566ZM721.188 257.4V346.6H749.888V363H667.188V346.6H698.788V273.8H668.188V257.4H721.188ZM705.588 205.7C709.988 205.7 713.521 207.033 716.188 209.7C718.921 212.367 720.288 215.7 720.288 219.7C720.288 223.7 718.921 227.067 716.188 229.8C713.521 232.533 709.988 233.9 705.588 233.9C701.321 233.9 697.821 232.533 695.088 229.8C692.354 227.067 690.988 223.7 690.988 219.7C690.988 215.7 692.354 212.367 695.088 209.7C697.821 207.033 701.321 205.7 705.588 205.7ZM767.409 363V257.4H786.709L788.409 271.1C792.809 265.7 798.009 261.6 804.009 258.8C810.009 256 816.176 254.6 822.509 254.6C832.376 254.6 839.743 257.367 844.609 262.9C849.543 268.367 852.009 276.067 852.009 286V363H829.609V297.1C829.609 290.967 829.243 286.033 828.509 282.3C827.776 278.567 826.309 275.867 824.109 274.2C821.976 272.533 818.776 271.7 814.509 271.7C811.109 271.7 807.876 272.433 804.809 273.9C801.743 275.367 798.943 277.3 796.409 279.7C793.876 282.033 791.676 284.533 789.809 287.2V363H767.409ZM960.231 244L966.231 262.6C962.031 264 957.398 264.933 952.331 265.4C947.331 265.867 941.731 266.1 935.531 266.1C941.865 268.9 946.631 272.5 949.831 276.9C953.031 281.233 954.631 286.567 954.631 292.9C954.631 299.767 952.965 305.9 949.631 311.3C946.298 316.7 941.531 320.933 935.331 324C929.131 327.067 921.698 328.6 913.031 328.6C909.965 328.6 907.298 328.467 905.031 328.2C902.831 327.933 900.665 327.5 898.531 326.9C897.198 327.833 896.065 329.1 895.131 330.7C894.265 332.233 893.831 333.867 893.831 335.6C893.831 337.733 894.698 339.6 896.431 341.2C898.231 342.733 901.765 343.5 907.031 343.5H925.431C932.965 343.5 939.598 344.8 945.331 347.4C951.131 349.933 955.665 353.433 958.931 357.9C962.265 362.3 963.931 367.3 963.931 372.9C963.931 383.433 959.398 391.6 950.331 397.4C941.265 403.2 928.198 406.1 911.131 406.1C899.065 406.1 889.598 404.867 882.731 402.4C875.865 399.933 871.031 396.267 868.231 391.4C865.431 386.533 864.031 380.567 864.031 373.5H884.131C884.131 377.167 884.831 380.2 886.231 382.6C887.698 385 890.398 386.8 894.331 388C898.265 389.2 903.931 389.8 911.331 389.8C918.731 389.8 924.598 389.167 928.931 387.9C933.331 386.7 936.498 384.933 938.431 382.6C940.431 380.333 941.431 377.6 941.431 374.4C941.431 370.133 939.565 366.833 935.831 364.5C932.098 362.167 927.098 361 920.831 361H902.731C892.731 361 885.398 358.967 880.731 354.9C876.131 350.833 873.831 346.1 873.831 340.7C873.831 337.1 874.831 333.633 876.831 330.3C878.898 326.967 881.831 324.067 885.631 321.6C879.298 318.267 874.665 314.233 871.731 309.5C868.865 304.7 867.431 298.9 867.431 292.1C867.431 284.633 869.298 278.1 873.031 272.5C876.765 266.9 881.931 262.533 888.531 259.4C895.198 256.267 902.865 254.7 911.531 254.7C919.998 254.7 927.065 254.267 932.731 253.4C938.398 252.467 943.331 251.167 947.531 249.5C951.798 247.833 956.031 246 960.231 244ZM911.731 270.1C904.598 270.1 899.231 272.133 895.631 276.2C892.031 280.2 890.231 285.433 890.231 291.9C890.231 298.567 892.065 303.933 895.731 308C899.465 312 904.898 314 912.031 314C918.631 314 923.665 312.067 927.131 308.2C930.665 304.333 932.431 298.833 932.431 291.7C932.431 284.5 930.698 279.1 927.231 275.5C923.765 271.9 918.598 270.1 911.731 270.1Z"/>
</mask>
<path d="M321.1 257.4V340.8C321.1 353.933 318.367 364.833 312.9 373.5C307.5 382.167 299.567 389.067 289.1 394.2C278.633 399.4 265.867 403.367 250.8 406.1L247.2 388.9C257.667 386.9 266.767 384.133 274.5 380.6C282.233 377.067 288.2 372.233 292.4 366.1C296.6 359.967 298.7 352.033 298.7 342.3V273.8H257V257.4H321.1ZM303.6 205.7C307.933 205.7 311.467 207.033 314.2 209.7C316.933 212.367 318.3 215.7 318.3 219.7C318.3 223.7 316.933 227.067 314.2 229.8C311.467 232.533 307.933 233.9 303.6 233.9C299.267 233.9 295.733 232.533 293 229.8C290.333 227.067 289 223.7 289 219.7C289 215.7 290.333 212.367 293 209.7C295.733 207.033 299.267 205.7 303.6 205.7ZM390.122 348.5C397.122 348.5 402.689 347.267 406.822 344.8C410.955 342.267 413.022 338.8 413.022 334.4C413.022 331.533 412.422 329.1 411.222 327.1C410.022 325.033 407.622 323.167 404.022 321.5C400.422 319.767 394.955 317.967 387.622 316.1C380.689 314.3 374.589 312.167 369.322 309.7C364.122 307.233 360.089 304.033 357.222 300.1C354.355 296.167 352.922 291.1 352.922 284.9C352.922 278.833 354.622 273.533 358.022 269C361.422 264.467 366.289 260.933 372.622 258.4C379.022 255.867 386.522 254.6 395.122 254.6C403.989 254.6 411.722 255.767 418.322 258.1C424.922 260.433 430.555 263.333 435.222 266.8L425.822 280.9C421.689 278.167 417.155 275.933 412.222 274.2C407.355 272.467 401.855 271.6 395.722 271.6C388.589 271.6 383.455 272.667 380.322 274.8C377.255 276.933 375.722 279.767 375.722 283.3C375.722 285.9 376.489 288.1 378.022 289.9C379.622 291.633 382.355 293.267 386.222 294.8C390.089 296.267 395.555 298 402.622 300C409.489 301.867 415.455 304.067 420.522 306.6C425.655 309.133 429.622 312.5 432.422 316.7C435.289 320.833 436.722 326.233 436.722 332.9C436.722 340.5 434.522 346.733 430.122 351.6C425.789 356.4 420.055 359.967 412.922 362.3C405.855 364.567 398.255 365.7 390.122 365.7C380.322 365.7 371.855 364.3 364.722 361.5C357.589 358.633 351.589 355.067 346.722 350.8L358.622 337.2C362.755 340.533 367.489 343.267 372.822 345.4C378.155 347.467 383.922 348.5 390.122 348.5ZM497.944 254.6C508.277 254.6 516.977 256.9 524.044 261.5C531.11 266.1 536.444 272.533 540.044 280.8C543.71 289.067 545.544 298.8 545.544 310C545.544 321.133 543.677 330.9 539.944 339.3C536.277 347.633 530.877 354.133 523.744 358.8C516.677 363.4 508.044 365.7 497.844 365.7C487.644 365.7 478.977 363.467 471.844 359C464.777 354.467 459.377 348.033 455.644 339.7C451.977 331.367 450.144 321.533 450.144 310.2C450.144 299.2 451.977 289.533 455.644 281.2C459.377 272.867 464.81 266.367 471.944 261.7C479.077 256.967 487.744 254.6 497.944 254.6ZM497.944 272C489.877 272 483.81 275.1 479.744 281.3C475.677 287.433 473.644 297.067 473.644 310.2C473.644 323.267 475.644 332.9 479.644 339.1C483.71 345.3 489.777 348.4 497.844 348.4C505.91 348.4 511.944 345.3 515.944 339.1C520.01 332.9 522.044 323.2 522.044 310C522.044 297 520.044 287.433 516.044 281.3C512.044 275.1 506.01 272 497.944 272ZM559.566 363V257.4H578.866L580.566 271.1C584.966 265.7 590.166 261.6 596.166 258.8C602.166 256 608.332 254.6 614.666 254.6C624.532 254.6 631.899 257.367 636.766 262.9C641.699 268.367 644.166 276.067 644.166 286V363H621.766V297.1C621.766 290.967 621.399 286.033 620.666 282.3C619.932 278.567 618.466 275.867 616.266 274.2C614.132 272.533 610.932 271.7 606.666 271.7C603.266 271.7 600.032 272.433 596.966 273.9C593.899 275.367 591.099 277.3 588.566 279.7C586.032 282.033 583.832 284.533 581.966 287.2V363H559.566ZM721.188 257.4V346.6H749.888V363H667.188V346.6H698.788V273.8H668.188V257.4H721.188ZM705.588 205.7C709.988 205.7 713.521 207.033 716.188 209.7C718.921 212.367 720.288 215.7 720.288 219.7C720.288 223.7 718.921 227.067 716.188 229.8C713.521 232.533 709.988 233.9 705.588 233.9C701.321 233.9 697.821 232.533 695.088 229.8C692.354 227.067 690.988 223.7 690.988 219.7C690.988 215.7 692.354 212.367 695.088 209.7C697.821 207.033 701.321 205.7 705.588 205.7ZM767.409 363V257.4H786.709L788.409 271.1C792.809 265.7 798.009 261.6 804.009 258.8C810.009 256 816.176 254.6 822.509 254.6C832.376 254.6 839.743 257.367 844.609 262.9C849.543 268.367 852.009 276.067 852.009 286V363H829.609V297.1C829.609 290.967 829.243 286.033 828.509 282.3C827.776 278.567 826.309 275.867 824.109 274.2C821.976 272.533 818.776 271.7 814.509 271.7C811.109 271.7 807.876 272.433 804.809 273.9C801.743 275.367 798.943 277.3 796.409 279.7C793.876 282.033 791.676 284.533 789.809 287.2V363H767.409ZM960.231 244L966.231 262.6C962.031 264 957.398 264.933 952.331 265.4C947.331 265.867 941.731 266.1 935.531 266.1C941.865 268.9 946.631 272.5 949.831 276.9C953.031 281.233 954.631 286.567 954.631 292.9C954.631 299.767 952.965 305.9 949.631 311.3C946.298 316.7 941.531 320.933 935.331 324C929.131 327.067 921.698 328.6 913.031 328.6C909.965 328.6 907.298 328.467 905.031 328.2C902.831 327.933 900.665 327.5 898.531 326.9C897.198 327.833 896.065 329.1 895.131 330.7C894.265 332.233 893.831 333.867 893.831 335.6C893.831 337.733 894.698 339.6 896.431 341.2C898.231 342.733 901.765 343.5 907.031 343.5H925.431C932.965 343.5 939.598 344.8 945.331 347.4C951.131 349.933 955.665 353.433 958.931 357.9C962.265 362.3 963.931 367.3 963.931 372.9C963.931 383.433 959.398 391.6 950.331 397.4C941.265 403.2 928.198 406.1 911.131 406.1C899.065 406.1 889.598 404.867 882.731 402.4C875.865 399.933 871.031 396.267 868.231 391.4C865.431 386.533 864.031 380.567 864.031 373.5H884.131C884.131 377.167 884.831 380.2 886.231 382.6C887.698 385 890.398 386.8 894.331 388C898.265 389.2 903.931 389.8 911.331 389.8C918.731 389.8 924.598 389.167 928.931 387.9C933.331 386.7 936.498 384.933 938.431 382.6C940.431 380.333 941.431 377.6 941.431 374.4C941.431 370.133 939.565 366.833 935.831 364.5C932.098 362.167 927.098 361 920.831 361H902.731C892.731 361 885.398 358.967 880.731 354.9C876.131 350.833 873.831 346.1 873.831 340.7C873.831 337.1 874.831 333.633 876.831 330.3C878.898 326.967 881.831 324.067 885.631 321.6C879.298 318.267 874.665 314.233 871.731 309.5C868.865 304.7 867.431 298.9 867.431 292.1C867.431 284.633 869.298 278.1 873.031 272.5C876.765 266.9 881.931 262.533 888.531 259.4C895.198 256.267 902.865 254.7 911.531 254.7C919.998 254.7 927.065 254.267 932.731 253.4C938.398 252.467 943.331 251.167 947.531 249.5C951.798 247.833 956.031 246 960.231 244ZM911.731 270.1C904.598 270.1 899.231 272.133 895.631 276.2C892.031 280.2 890.231 285.433 890.231 291.9C890.231 298.567 892.065 303.933 895.731 308C899.465 312 904.898 314 912.031 314C918.631 314 923.665 312.067 927.131 308.2C930.665 304.333 932.431 298.833 932.431 291.7C932.431 284.5 930.698 279.1 927.231 275.5C923.765 271.9 918.598 270.1 911.731 270.1Z" fill="white"/>
<path d="M321.1 257.4H322.1V256.4H321.1V257.4ZM312.9 373.5L312.054 372.966L312.051 372.971L312.9 373.5ZM289.1 394.2L288.66 393.302L288.655 393.304L289.1 394.2ZM250.8 406.1L249.821 406.305L250.021 407.258L250.979 407.084L250.8 406.1ZM247.2 388.9L247.012 387.918L246.013 388.109L246.221 389.105L247.2 388.9ZM274.5 380.6L274.084 379.69L274.084 379.69L274.5 380.6ZM292.4 366.1L291.575 365.535L291.575 365.535L292.4 366.1ZM298.7 273.8H299.7V272.8H298.7V273.8ZM257 273.8H256V274.8H257V273.8ZM257 257.4V256.4H256V257.4H257ZM314.2 209.7L314.898 208.984L314.898 208.984L314.2 209.7ZM314.2 229.8L314.907 230.507L314.907 230.507L314.2 229.8ZM293 229.8L292.284 230.498L292.293 230.507L293 229.8ZM293 209.7L292.302 208.984L292.293 208.993L293 209.7ZM320.1 257.4V340.8H322.1V257.4H320.1ZM320.1 340.8C320.1 353.797 317.395 364.499 312.054 372.966L313.746 374.034C319.338 365.168 322.1 354.07 322.1 340.8H320.1ZM312.051 372.971C306.764 381.458 298.983 388.239 288.66 393.302L289.54 395.098C300.151 389.894 308.236 382.876 313.749 374.029L312.051 372.971ZM288.655 393.304C278.294 398.452 265.623 402.395 250.621 405.116L250.979 407.084C266.111 404.339 278.973 400.348 289.545 395.096L288.655 393.304ZM251.779 405.895L248.179 388.695L246.221 389.105L249.821 406.305L251.779 405.895ZM247.388 389.882C257.914 387.871 267.094 385.083 274.916 381.51L274.084 379.69C266.439 383.183 257.419 385.929 247.012 387.918L247.388 389.882ZM274.916 381.51C282.79 377.912 288.908 372.969 293.225 366.665L291.575 365.535C287.492 371.498 281.677 376.222 274.084 379.69L274.916 381.51ZM293.225 366.665C297.57 360.321 299.7 352.173 299.7 342.3H297.7C297.7 351.893 295.63 359.613 291.575 365.535L293.225 366.665ZM299.7 342.3V273.8H297.7V342.3H299.7ZM298.7 272.8H257V274.8H298.7V272.8ZM258 273.8V257.4H256V273.8H258ZM257 258.4H321.1V256.4H257V258.4ZM303.6 206.7C307.711 206.7 310.981 207.956 313.502 210.416L314.898 208.984C311.953 206.11 308.156 204.7 303.6 204.7V206.7ZM313.502 210.416C316.032 212.884 317.3 215.955 317.3 219.7H319.3C319.3 215.445 317.835 211.849 314.898 208.984L313.502 210.416ZM317.3 219.7C317.3 223.445 316.032 226.554 313.493 229.093L314.907 230.507C317.835 227.579 319.3 223.955 319.3 219.7H317.3ZM313.493 229.093C310.971 231.615 307.703 232.9 303.6 232.9V234.9C308.163 234.9 311.963 233.451 314.907 230.507L313.493 229.093ZM303.6 232.9C299.497 232.9 296.229 231.615 293.707 229.093L292.293 230.507C295.237 233.451 299.037 234.9 303.6 234.9V232.9ZM293.716 229.102C291.241 226.565 290 223.453 290 219.7H288C288 223.947 289.426 227.569 292.284 230.498L293.716 229.102ZM290 219.7C290 215.947 291.24 212.874 293.707 210.407L292.293 208.993C289.426 211.859 288 215.453 288 219.7H290ZM293.698 210.416C296.219 207.956 299.489 206.7 303.6 206.7V204.7C299.044 204.7 295.247 206.11 292.302 208.984L293.698 210.416ZM406.822 344.8L407.334 345.659L407.344 345.653L406.822 344.8ZM411.222 327.1L410.357 327.602L410.361 327.608L410.364 327.614L411.222 327.1ZM404.022 321.5L403.588 322.401L403.595 322.404L403.602 322.407L404.022 321.5ZM387.622 316.1L387.371 317.068L387.375 317.069L387.622 316.1ZM369.322 309.7L368.893 310.604L368.898 310.606L369.322 309.7ZM357.222 300.1L356.414 300.689L356.414 300.689L357.222 300.1ZM358.022 269L357.222 268.4L357.222 268.4L358.022 269ZM372.622 258.4L372.254 257.47L372.25 257.472L372.622 258.4ZM418.322 258.1L417.989 259.043L417.989 259.043L418.322 258.1ZM435.222 266.8L436.054 267.355L436.581 266.564L435.818 265.997L435.222 266.8ZM425.822 280.9L425.27 281.734L426.101 282.284L426.654 281.455L425.822 280.9ZM412.222 274.2L411.886 275.142L411.89 275.143L412.222 274.2ZM380.322 274.8L379.759 273.973L379.751 273.979L380.322 274.8ZM378.022 289.9L377.261 290.548L377.274 290.564L377.287 290.578L378.022 289.9ZM386.222 294.8L385.853 295.73L385.86 295.732L385.867 295.735L386.222 294.8ZM402.622 300L402.35 300.962L402.36 300.965L402.622 300ZM420.522 306.6L420.075 307.494L420.079 307.497L420.522 306.6ZM432.422 316.7L431.59 317.255L431.595 317.262L431.6 317.27L432.422 316.7ZM430.122 351.6L429.38 350.929L429.38 350.93L430.122 351.6ZM412.922 362.3L413.227 363.252L413.233 363.25L412.922 362.3ZM364.722 361.5L364.349 362.428L364.356 362.431L364.722 361.5ZM346.722 350.8L345.969 350.141L345.311 350.893L346.063 351.552L346.722 350.8ZM358.622 337.2L359.25 336.422L358.502 335.819L357.869 336.541L358.622 337.2ZM372.822 345.4L372.45 346.329L372.461 346.332L372.822 345.4ZM390.122 349.5C397.225 349.5 402.991 348.251 407.334 345.659L406.309 343.941C402.386 346.283 397.018 347.5 390.122 347.5V349.5ZM407.344 345.653C411.738 342.96 414.022 339.188 414.022 334.4H412.022C412.022 338.412 410.172 341.574 406.299 343.947L407.344 345.653ZM414.022 334.4C414.022 331.393 413.392 328.773 412.079 326.586L410.364 327.614C411.452 329.427 412.022 331.673 412.022 334.4H414.022ZM412.087 326.598C410.736 324.271 408.117 322.294 404.442 320.593L403.602 322.407C407.127 324.039 409.308 325.796 410.357 327.602L412.087 326.598ZM404.456 320.599C400.764 318.822 395.22 317.002 387.869 315.131L387.375 317.069C394.69 318.931 400.08 320.712 403.588 322.401L404.456 320.599ZM387.873 315.132C380.986 313.344 374.946 311.23 369.746 308.794L368.898 310.606C374.231 313.103 380.391 315.256 387.371 317.068L387.873 315.132ZM369.75 308.796C364.674 306.388 360.782 303.287 358.03 299.511L356.414 300.689C359.395 304.78 363.57 308.078 368.893 310.603L369.75 308.796ZM358.03 299.511C355.318 295.791 353.922 290.947 353.922 284.9H351.922C351.922 291.253 353.392 296.543 356.414 300.689L358.03 299.511ZM353.922 284.9C353.922 279.033 355.561 273.948 358.822 269.6L357.222 268.4C353.683 273.119 351.922 278.633 351.922 284.9H353.922ZM358.822 269.6C362.091 265.241 366.795 261.808 372.993 259.328L372.25 257.472C365.782 260.059 360.752 263.693 357.222 268.4L358.822 269.6ZM372.99 259.33C379.248 256.853 386.618 255.6 395.122 255.6V253.6C386.426 253.6 378.796 254.88 372.254 257.47L372.99 259.33ZM395.122 255.6C403.904 255.6 411.52 256.756 417.989 259.043L418.655 257.157C411.924 254.777 404.073 253.6 395.122 253.6V255.6ZM417.989 259.043C424.513 261.349 430.053 264.206 434.626 267.603L435.818 265.997C431.057 262.46 425.331 259.517 418.655 257.157L417.989 259.043ZM434.39 266.245L424.99 280.345L426.654 281.455L436.054 267.355L434.39 266.245ZM426.373 280.066C422.168 277.285 417.56 275.016 412.553 273.257L411.89 275.143C416.75 276.851 421.209 279.049 425.27 281.734L426.373 280.066ZM412.557 273.258C407.565 271.48 401.949 270.6 395.722 270.6V272.6C401.762 272.6 407.145 273.453 411.886 275.142L412.557 273.258ZM395.722 270.6C388.539 270.6 383.15 271.665 379.759 273.973L380.885 275.627C383.76 273.669 388.638 272.6 395.722 272.6V270.6ZM379.751 273.979C376.434 276.287 374.722 279.418 374.722 283.3H376.722C376.722 280.116 378.077 277.58 380.893 275.621L379.751 273.979ZM374.722 283.3C374.722 286.112 375.557 288.549 377.261 290.548L378.783 289.252C377.42 287.651 376.722 285.688 376.722 283.3H374.722ZM377.287 290.578C379.039 292.476 381.938 294.177 385.853 295.73L386.591 293.87C382.772 292.356 380.205 290.791 378.757 289.222L377.287 290.578ZM385.867 295.735C389.774 297.217 395.273 298.959 402.35 300.962L402.894 299.038C395.838 297.041 390.403 295.316 386.577 293.865L385.867 295.735ZM402.36 300.965C409.178 302.818 415.08 304.997 420.075 307.494L420.969 305.706C415.831 303.136 409.799 300.915 402.884 299.035L402.36 300.965ZM420.079 307.497C425.077 309.963 428.9 313.22 431.59 317.255L433.254 316.145C430.344 311.78 426.234 308.304 420.964 305.703L420.079 307.497ZM431.6 317.27C434.318 321.189 435.722 326.372 435.722 332.9H437.722C437.722 326.095 436.259 320.477 433.244 316.13L431.6 317.27ZM435.722 332.9C435.722 340.294 433.588 346.275 429.38 350.929L430.864 352.271C435.456 347.191 437.722 340.706 437.722 332.9H435.722ZM429.38 350.93C425.181 355.581 419.605 359.062 412.611 361.35L413.233 363.25C420.505 360.872 426.396 357.219 430.864 352.27L429.38 350.93ZM412.616 361.348C405.657 363.58 398.161 364.7 390.122 364.7V366.7C398.349 366.7 406.053 365.553 413.227 363.252L412.616 361.348ZM390.122 364.7C380.414 364.7 372.077 363.313 365.087 360.569L364.356 362.431C371.634 365.287 380.23 366.7 390.122 366.7V364.7ZM365.095 360.572C358.047 357.74 352.149 354.228 347.381 350.048L346.063 351.552C351.028 355.905 357.13 359.527 364.349 362.428L365.095 360.572ZM347.474 351.459L359.374 337.859L357.869 336.541L345.969 350.141L347.474 351.459ZM357.994 337.978C362.211 341.379 367.032 344.161 372.45 346.328L373.193 344.472C367.945 342.372 363.299 339.688 359.25 336.422L357.994 337.978ZM372.461 346.332C377.918 348.447 383.809 349.5 390.122 349.5V347.5C384.035 347.5 378.392 346.486 373.183 344.468L372.461 346.332ZM524.044 261.5L524.589 260.662L524.589 260.662L524.044 261.5ZM540.044 280.8L539.127 281.199L539.13 281.205L540.044 280.8ZM539.944 339.3L539.03 338.894L539.028 338.897L539.944 339.3ZM523.744 358.8L524.289 359.638L524.291 359.637L523.744 358.8ZM471.844 359L471.304 359.842L471.313 359.848L471.844 359ZM455.644 339.7L454.728 340.103L454.731 340.109L455.644 339.7ZM455.644 281.2L454.731 280.791L454.728 280.797L455.644 281.2ZM471.944 261.7L472.491 262.537L472.497 262.533L471.944 261.7ZM479.744 281.3L480.577 281.853L480.58 281.848L479.744 281.3ZM479.644 339.1L478.803 339.642L478.808 339.648L479.644 339.1ZM515.944 339.1L515.108 338.552L515.103 338.558L515.944 339.1ZM516.044 281.3L515.203 281.842L515.206 281.846L516.044 281.3ZM497.944 255.6C508.127 255.6 516.627 257.865 523.498 262.338L524.589 260.662C517.327 255.935 508.427 253.6 497.944 253.6V255.6ZM523.498 262.338C530.389 266.824 535.599 273.099 539.127 281.199L540.961 280.401C537.288 271.968 531.832 265.376 524.589 260.662L523.498 262.338ZM539.13 281.205C542.728 289.318 544.544 298.907 544.544 310H546.544C546.544 298.693 544.693 288.815 540.958 280.395L539.13 281.205ZM544.544 310C544.544 321.022 542.696 330.646 539.03 338.894L540.858 339.706C544.658 331.154 546.544 321.244 546.544 310H544.544ZM539.028 338.897C535.434 347.066 530.156 353.41 523.196 357.963L524.291 359.637C531.598 354.857 537.12 348.201 540.859 339.703L539.028 338.897ZM523.198 357.962C516.325 362.436 507.891 364.7 497.844 364.7V366.7C508.196 366.7 517.029 364.364 524.289 359.638L523.198 357.962ZM497.844 364.7C487.791 364.7 479.318 362.5 472.374 358.152L471.313 359.848C478.636 364.433 487.496 366.7 497.844 366.7V364.7ZM472.384 358.158C465.495 353.739 460.217 347.463 456.556 339.291L454.731 340.109C458.537 348.603 464.059 355.194 471.304 359.842L472.384 358.158ZM456.559 339.297C452.96 331.118 451.144 321.428 451.144 310.2H449.144C449.144 321.639 450.994 331.615 454.728 340.103L456.559 339.297ZM451.144 310.2C451.144 299.31 452.959 289.786 456.559 281.603L454.728 280.797C450.996 289.281 449.144 299.09 449.144 310.2H451.144ZM456.556 281.609C460.217 273.437 465.53 267.091 472.491 262.537L471.396 260.863C464.091 265.642 458.537 272.296 454.731 280.791L456.556 281.609ZM472.497 262.533C479.437 257.928 487.902 255.6 497.944 255.6V253.6C487.585 253.6 478.717 256.005 471.391 260.867L472.497 262.533ZM497.944 271C489.575 271 483.178 274.242 478.908 280.752L480.58 281.848C484.443 275.958 490.179 273 497.944 273V271ZM478.91 280.747C474.679 287.129 472.644 297.005 472.644 310.2H474.644C474.644 297.129 476.675 287.738 480.577 281.853L478.91 280.747ZM472.644 310.2C472.644 323.33 474.646 333.198 478.803 339.642L480.484 338.558C476.641 332.602 474.644 323.204 474.644 310.2H472.644ZM478.808 339.648C483.078 346.158 489.475 349.4 497.844 349.4V347.4C490.079 347.4 484.343 344.442 480.48 338.552L478.808 339.648ZM497.844 349.4C506.212 349.4 512.58 346.158 516.784 339.642L515.103 338.558C511.307 344.442 505.608 347.4 497.844 347.4V349.4ZM516.78 339.648C521.008 333.202 523.044 323.262 523.044 310H521.044C521.044 323.138 519.013 332.598 515.108 338.552L516.78 339.648ZM523.044 310C523.044 296.937 521.041 287.133 516.881 280.754L515.206 281.846C519.046 287.734 521.044 297.063 521.044 310H523.044ZM516.884 280.758C512.68 274.242 506.312 271 497.944 271V273C505.708 273 511.407 275.958 515.203 281.842L516.884 280.758ZM559.566 363H558.566V364H559.566V363ZM559.566 257.4V256.4H558.566V257.4H559.566ZM578.866 257.4L579.858 257.277L579.749 256.4H578.866V257.4ZM580.566 271.1L579.573 271.223L579.862 273.547L581.341 271.732L580.566 271.1ZM596.166 258.8L596.589 259.706L596.589 259.706L596.166 258.8ZM636.766 262.9L636.015 263.56L636.023 263.57L636.766 262.9ZM644.166 363V364H645.166V363H644.166ZM621.766 363H620.766V364H621.766V363ZM616.266 274.2L615.65 274.988L615.656 274.993L615.662 274.997L616.266 274.2ZM588.566 279.7L589.243 280.436L589.253 280.426L588.566 279.7ZM581.966 287.2L581.146 286.627L580.966 286.885V287.2H581.966ZM581.966 363V364H582.966V363H581.966ZM560.566 363V257.4H558.566V363H560.566ZM559.566 258.4H578.866V256.4H559.566V258.4ZM577.873 257.523L579.573 271.223L581.558 270.977L579.858 257.277L577.873 257.523ZM581.341 271.732C585.651 266.442 590.732 262.439 596.589 259.706L595.743 257.894C589.599 260.761 584.281 264.958 579.79 270.468L581.341 271.732ZM596.589 259.706C602.462 256.965 608.485 255.6 614.666 255.6V253.6C608.18 253.6 601.869 255.035 595.743 257.894L596.589 259.706ZM614.666 255.6C624.347 255.6 631.397 258.31 636.015 263.56L637.517 262.24C632.401 256.424 624.717 253.6 614.666 253.6V255.6ZM636.023 263.57C640.74 268.797 643.166 276.227 643.166 286H645.166C645.166 275.907 642.658 267.936 637.508 262.23L636.023 263.57ZM643.166 286V363H645.166V286H643.166ZM644.166 362H621.766V364H644.166V362ZM622.766 363V297.1H620.766V363H622.766ZM622.766 297.1C622.766 290.936 622.398 285.931 621.647 282.107L619.684 282.493C620.4 286.136 620.766 290.997 620.766 297.1H622.766ZM621.647 282.107C620.884 278.225 619.329 275.266 616.869 273.403L615.662 274.997C617.603 276.467 618.98 278.909 619.684 282.493L621.647 282.107ZM616.881 273.412C614.496 271.549 611.035 270.7 606.666 270.7V272.7C610.83 272.7 613.768 273.518 615.65 274.988L616.881 273.412ZM606.666 270.7C603.116 270.7 599.736 271.467 596.534 272.998L597.397 274.802C600.329 273.4 603.415 272.7 606.666 272.7V270.7ZM596.534 272.998C593.371 274.511 590.485 276.504 587.878 278.974L589.253 280.426C591.713 278.096 594.427 276.223 597.397 274.802L596.534 272.998ZM587.888 278.964C585.305 281.344 583.057 283.898 581.146 286.627L582.785 287.773C584.608 285.169 586.76 282.723 589.243 280.436L587.888 278.964ZM580.966 287.2V363H582.966V287.2H580.966ZM581.966 362H559.566V364H581.966V362ZM721.188 257.4H722.188V256.4H721.188V257.4ZM721.188 346.6H720.188V347.6H721.188V346.6ZM749.888 346.6H750.888V345.6H749.888V346.6ZM749.888 363V364H750.888V363H749.888ZM667.188 363H666.188V364H667.188V363ZM667.188 346.6V345.6H666.188V346.6H667.188ZM698.788 346.6V347.6H699.788V346.6H698.788ZM698.788 273.8H699.788V272.8H698.788V273.8ZM668.188 273.8H667.188V274.8H668.188V273.8ZM668.188 257.4V256.4H667.188V257.4H668.188ZM716.188 209.7L715.48 210.407L715.489 210.416L716.188 209.7ZM716.188 229.8L715.48 229.093L715.472 229.102L716.188 229.8ZM695.088 229.8L694.38 230.507L695.088 229.8ZM695.088 209.7L694.389 208.984L694.389 208.984L695.088 209.7ZM720.188 257.4V346.6H722.188V257.4H720.188ZM721.188 347.6H749.888V345.6H721.188V347.6ZM748.888 346.6V363H750.888V346.6H748.888ZM749.888 362H667.188V364H749.888V362ZM668.188 363V346.6H666.188V363H668.188ZM667.188 347.6H698.788V345.6H667.188V347.6ZM699.788 346.6V273.8H697.788V346.6H699.788ZM698.788 272.8H668.188V274.8H698.788V272.8ZM669.188 273.8V257.4H667.188V273.8H669.188ZM668.188 258.4H721.188V256.4H668.188V258.4ZM705.588 206.7C709.77 206.7 713.033 207.959 715.48 210.407L716.895 208.993C714.009 206.107 710.205 204.7 705.588 204.7V206.7ZM715.489 210.416C718.02 212.884 719.288 215.955 719.288 219.7H721.288C721.288 215.445 719.822 211.849 716.886 208.984L715.489 210.416ZM719.288 219.7C719.288 223.445 718.019 226.554 715.48 229.093L716.895 230.507C719.823 227.579 721.288 223.955 721.288 219.7H719.288ZM715.472 229.102C713.022 231.612 709.763 232.9 705.588 232.9V234.9C710.212 234.9 714.019 233.454 716.903 230.498L715.472 229.102ZM705.588 232.9C701.556 232.9 698.32 231.618 695.795 229.093L694.38 230.507C697.322 233.448 701.086 234.9 705.588 234.9V232.9ZM695.795 229.093C693.256 226.554 691.988 223.445 691.988 219.7H689.988C689.988 223.955 691.452 227.579 694.38 230.507L695.795 229.093ZM691.988 219.7C691.988 215.955 693.255 212.884 695.786 210.416L694.389 208.984C691.453 211.849 689.988 215.445 689.988 219.7H691.988ZM695.786 210.416C698.31 207.953 701.548 206.7 705.588 206.7V204.7C701.093 204.7 697.332 206.113 694.389 208.984L695.786 210.416ZM767.409 363H766.409V364H767.409V363ZM767.409 257.4V256.4H766.409V257.4H767.409ZM786.709 257.4L787.702 257.277L787.593 256.4H786.709V257.4ZM788.409 271.1L787.417 271.223L787.705 273.547L789.185 271.732L788.409 271.1ZM804.009 258.8L804.432 259.706L804.432 259.706L804.009 258.8ZM844.609 262.9L843.858 263.56L843.867 263.57L844.609 262.9ZM852.009 363V364H853.009V363H852.009ZM829.609 363H828.609V364H829.609V363ZM824.109 274.2L823.494 274.988L823.5 274.993L823.506 274.997L824.109 274.2ZM796.409 279.7L797.087 280.436L797.097 280.426L796.409 279.7ZM789.809 287.2L788.99 286.627L788.809 286.885V287.2H789.809ZM789.809 363V364H790.809V363H789.809ZM768.409 363V257.4H766.409V363H768.409ZM767.409 258.4H786.709V256.4H767.409V258.4ZM785.717 257.523L787.417 271.223L789.402 270.977L787.702 257.277L785.717 257.523ZM789.185 271.732C793.494 266.442 798.576 262.439 804.432 259.706L803.586 257.894C797.443 260.761 792.124 264.958 787.634 270.468L789.185 271.732ZM804.432 259.706C810.306 256.965 816.329 255.6 822.509 255.6V253.6C816.023 253.6 809.713 255.035 803.586 257.894L804.432 259.706ZM822.509 255.6C832.191 255.6 839.24 258.31 843.858 263.56L845.36 262.24C840.245 256.424 832.561 253.6 822.509 253.6V255.6ZM843.867 263.57C848.584 268.797 851.009 276.227 851.009 286H853.009C853.009 275.907 850.501 267.936 845.352 262.23L843.867 263.57ZM851.009 286V363H853.009V286H851.009ZM852.009 362H829.609V364H852.009V362ZM830.609 363V297.1H828.609V363H830.609ZM830.609 297.1C830.609 290.936 830.242 285.931 829.491 282.107L827.528 282.493C828.244 286.136 828.609 290.997 828.609 297.1H830.609ZM829.491 282.107C828.728 278.225 827.172 275.266 824.713 273.403L823.506 274.997C825.446 276.467 826.824 278.909 827.528 282.493L829.491 282.107ZM824.725 273.412C822.34 271.549 818.879 270.7 814.509 270.7V272.7C818.673 272.7 821.612 273.518 823.494 274.988L824.725 273.412ZM814.509 270.7C810.96 270.7 807.579 271.467 804.378 272.998L805.241 274.802C808.173 273.4 811.259 272.7 814.509 272.7V270.7ZM804.378 272.998C801.215 274.511 798.329 276.504 795.722 278.974L797.097 280.426C799.557 278.096 802.271 276.223 805.241 274.802L804.378 272.998ZM795.732 278.964C793.149 281.344 790.9 283.898 788.99 286.627L790.629 287.773C792.452 285.169 794.603 282.723 797.087 280.436L795.732 278.964ZM788.809 287.2V363H790.809V287.2H788.809ZM789.809 362H767.409V364H789.809V362ZM960.231 244L961.183 243.693L960.832 242.606L959.801 243.097L960.231 244ZM966.231 262.6L966.547 263.549L967.487 263.236L967.183 262.293L966.231 262.6ZM952.331 265.4L952.24 264.404L952.238 264.404L952.331 265.4ZM935.531 266.1V265.1L935.127 267.015L935.531 266.1ZM949.831 276.9L949.022 277.488L949.027 277.494L949.831 276.9ZM949.631 311.3L948.78 310.775L948.78 310.775L949.631 311.3ZM935.331 324L934.888 323.104L934.888 323.104L935.331 324ZM905.031 328.2L904.911 329.193L904.914 329.193L905.031 328.2ZM898.531 326.9L898.802 325.937L898.346 325.809L897.958 326.081L898.531 326.9ZM895.131 330.7L894.267 330.196L894.261 330.208L895.131 330.7ZM896.431 341.2L895.753 341.935L895.768 341.948L895.783 341.961L896.431 341.2ZM945.331 347.4L944.918 348.311L944.931 348.316L945.331 347.4ZM958.931 357.9L958.124 358.49L958.129 358.497L958.134 358.504L958.931 357.9ZM950.331 397.4L949.792 396.558L950.331 397.4ZM882.731 402.4L883.069 401.459L883.069 401.459L882.731 402.4ZM868.231 391.4L867.364 391.899L867.364 391.899L868.231 391.4ZM864.031 373.5V372.5H863.031V373.5H864.031ZM884.131 373.5H885.131V372.5H884.131V373.5ZM886.231 382.6L885.367 383.104L885.373 383.113L885.378 383.121L886.231 382.6ZM894.331 388L894.623 387.044L894.623 387.044L894.331 388ZM928.931 387.9L928.668 386.935L928.659 386.938L928.651 386.94L928.931 387.9ZM938.431 382.6L937.681 381.938L937.671 381.95L937.661 381.962L938.431 382.6ZM935.831 364.5L935.301 365.348L935.301 365.348L935.831 364.5ZM880.731 354.9L880.069 355.649L880.074 355.654L880.731 354.9ZM876.831 330.3L875.981 329.773L875.978 329.779L875.974 329.786L876.831 330.3ZM885.631 321.6L886.176 322.439L887.607 321.51L886.097 320.715L885.631 321.6ZM871.731 309.5L870.873 310.013L870.877 310.02L870.881 310.027L871.731 309.5ZM873.031 272.5L872.199 271.945L872.199 271.945L873.031 272.5ZM888.531 259.4L888.106 258.495L888.102 258.497L888.531 259.4ZM932.731 253.4L932.882 254.389L932.894 254.387L932.731 253.4ZM947.531 249.5L947.167 248.569L947.162 248.57L947.531 249.5ZM895.631 276.2L896.375 276.869L896.38 276.863L895.631 276.2ZM895.731 308L894.989 308.67L894.994 308.676L895 308.682L895.731 308ZM927.131 308.2L926.393 307.525L926.387 307.532L927.131 308.2ZM927.231 275.5L927.952 274.806L927.952 274.806L927.231 275.5ZM959.28 244.307L965.28 262.907L967.183 262.293L961.183 243.693L959.28 244.307ZM965.915 261.651C961.798 263.024 957.241 263.944 952.24 264.404L952.423 266.396C957.555 265.923 962.265 264.976 966.547 263.549L965.915 261.651ZM952.238 264.404C947.275 264.868 941.707 265.1 935.531 265.1V267.1C941.755 267.1 947.387 266.866 952.424 266.396L952.238 264.404ZM935.127 267.015C941.342 269.762 945.951 273.265 949.023 277.488L950.64 276.312C947.312 271.735 942.387 268.038 935.936 265.185L935.127 267.015ZM949.027 277.494C952.079 281.627 953.631 286.742 953.631 292.9H955.631C955.631 286.392 953.984 280.84 950.636 276.306L949.027 277.494ZM953.631 292.9C953.631 299.597 952.008 305.546 948.78 310.775L950.482 311.825C953.921 306.254 955.631 299.936 955.631 292.9H953.631ZM948.78 310.775C945.554 316.001 940.936 320.112 934.888 323.104L935.775 324.896C942.127 321.754 947.042 317.399 950.482 311.825L948.78 310.775ZM934.888 323.104C928.856 326.087 921.582 327.6 913.031 327.6V329.6C921.814 329.6 929.406 328.046 935.775 324.896L934.888 323.104ZM913.031 327.6C909.991 327.6 907.365 327.468 905.148 327.207L904.914 329.193C907.23 329.466 909.938 329.6 913.031 329.6V327.6ZM905.152 327.207C903.002 326.947 900.886 326.523 898.802 325.937L898.261 327.863C900.443 328.477 902.66 328.92 904.911 329.193L905.152 327.207ZM897.958 326.081C896.491 327.108 895.264 328.489 894.267 330.196L895.995 331.204C896.866 329.711 897.905 328.559 899.105 327.719L897.958 326.081ZM894.261 330.208C893.311 331.889 892.831 333.691 892.831 335.6H894.831C894.831 334.042 895.219 332.578 896.002 331.192L894.261 330.208ZM892.831 335.6C892.831 338.044 893.839 340.168 895.753 341.935L897.11 340.465C895.557 339.032 894.831 337.423 894.831 335.6H892.831ZM895.783 341.961C896.857 342.877 898.369 343.501 900.219 343.902C902.079 344.306 904.356 344.5 907.031 344.5V342.5C904.44 342.5 902.317 342.311 900.643 341.948C898.96 341.582 897.805 341.057 897.08 340.439L895.783 341.961ZM907.031 344.5H925.431V342.5H907.031V344.5ZM925.431 344.5C932.85 344.5 939.338 345.78 944.918 348.311L945.744 346.489C939.858 343.82 933.079 342.5 925.431 342.5V344.5ZM944.931 348.316C950.593 350.789 954.976 354.186 958.124 358.49L959.738 357.31C956.353 352.681 951.67 349.077 945.732 346.484L944.931 348.316ZM958.134 358.504C961.334 362.727 962.931 367.515 962.931 372.9H964.931C964.931 367.085 963.195 361.873 959.728 357.296L958.134 358.504ZM962.931 372.9C962.931 383.083 958.579 390.937 949.792 396.558L950.87 398.242C960.216 392.263 964.931 383.783 964.931 372.9H962.931ZM949.792 396.558C940.955 402.211 928.109 405.1 911.131 405.1V407.1C928.287 407.1 941.574 404.189 950.87 398.242L949.792 396.558ZM911.131 405.1C899.115 405.1 889.78 403.869 883.069 401.459L882.393 403.341C889.416 405.864 899.015 407.1 911.131 407.1V405.1ZM883.069 401.459C876.358 399.048 871.748 395.508 869.098 390.901L867.364 391.899C870.314 397.026 875.371 400.819 882.393 403.341L883.069 401.459ZM869.098 390.901C866.405 386.221 865.031 380.436 865.031 373.5H863.031C863.031 380.697 864.457 386.846 867.364 391.899L869.098 390.901ZM864.031 374.5H884.131V372.5H864.031V374.5ZM883.131 373.5C883.131 377.289 883.854 380.51 885.367 383.104L887.095 382.096C885.808 379.89 885.131 377.045 885.131 373.5H883.131ZM885.378 383.121C887.02 385.809 889.978 387.717 894.039 388.956L894.623 387.044C890.818 385.883 888.376 384.191 887.085 382.079L885.378 383.121ZM894.039 388.956C898.114 390.2 903.898 390.8 911.331 390.8V388.8C903.965 388.8 898.415 388.2 894.623 387.044L894.039 388.956ZM911.331 390.8C918.774 390.8 924.748 390.165 929.212 388.86L928.651 386.94C924.448 388.169 918.689 388.8 911.331 388.8V390.8ZM929.194 388.865C933.698 387.636 937.086 385.791 939.201 383.238L937.661 381.962C935.91 384.075 932.964 385.764 928.668 386.935L929.194 388.865ZM939.181 383.262C941.352 380.801 942.431 377.828 942.431 374.4H940.431C940.431 377.372 939.51 379.866 937.681 381.938L939.181 383.262ZM942.431 374.4C942.431 369.775 940.376 366.161 936.361 363.652L935.301 365.348C938.754 367.506 940.431 370.491 940.431 374.4H942.431ZM936.361 363.652C932.415 361.186 927.21 360 920.831 360V362C926.986 362 931.781 363.148 935.301 365.348L936.361 363.652ZM920.831 360H902.731V362H920.831V360ZM902.731 360C892.833 360 885.79 357.982 881.388 354.146L880.074 355.654C885.006 359.952 892.629 362 902.731 362V360ZM881.394 354.151C876.976 350.245 874.831 345.773 874.831 340.7H872.831C872.831 346.427 875.287 351.422 880.069 355.649L881.394 354.151ZM874.831 340.7C874.831 337.296 875.774 334.005 877.689 330.814L875.974 329.786C873.888 333.261 872.831 336.904 872.831 340.7H874.831ZM877.681 330.827C879.659 327.637 882.48 324.838 886.176 322.439L885.087 320.761C881.182 323.296 878.137 326.297 875.981 329.773L877.681 330.827ZM886.097 320.715C879.877 317.442 875.398 313.518 872.581 308.973L870.881 310.027C873.932 314.949 878.719 319.092 885.166 322.485L886.097 320.715ZM872.59 308.987C869.834 304.373 868.431 298.758 868.431 292.1H866.431C866.431 299.042 867.895 305.027 870.873 310.013L872.59 308.987ZM868.431 292.1C868.431 284.808 870.251 278.473 873.863 273.055L872.199 271.945C868.345 277.727 866.431 284.458 866.431 292.1H868.431ZM873.863 273.055C877.488 267.618 882.509 263.366 888.96 260.303L888.102 258.497C881.353 261.701 876.041 266.182 872.199 271.945L873.863 273.055ZM888.957 260.305C895.469 257.244 902.986 255.7 911.531 255.7V253.7C902.743 253.7 894.927 255.289 888.106 258.495L888.957 260.305ZM911.531 255.7C920.027 255.7 927.148 255.265 932.882 254.388L932.58 252.411C926.981 253.268 919.969 253.7 911.531 253.7V255.7ZM932.894 254.387C938.613 253.445 943.619 252.129 947.9 250.429L947.162 248.57C943.044 250.205 938.183 251.489 932.569 252.413L932.894 254.387ZM947.895 250.431C952.184 248.756 956.44 246.913 960.661 244.903L959.801 243.097C955.623 245.087 951.411 246.911 947.167 248.569L947.895 250.431ZM911.731 269.1C904.407 269.1 898.727 271.194 894.882 275.537L896.38 276.863C899.735 273.073 904.789 271.1 911.731 271.1V269.1ZM894.888 275.531C891.091 279.75 889.231 285.239 889.231 291.9H891.231C891.231 285.628 892.972 280.65 896.375 276.869L894.888 275.531ZM889.231 291.9C889.231 298.758 891.122 304.381 894.989 308.67L896.474 307.33C893.007 303.485 891.231 298.376 891.231 291.9H889.231ZM895 308.682C898.976 312.942 904.709 315 912.031 315V313C905.086 313 899.954 311.058 896.462 307.318L895 308.682ZM912.031 315C918.833 315 924.171 313 927.876 308.868L926.387 307.532C923.158 311.133 918.429 313 912.031 313V315ZM927.869 308.875C931.624 304.766 933.431 298.992 933.431 291.7H931.431C931.431 298.675 929.705 303.901 926.393 307.525L927.869 308.875ZM933.431 291.7C933.431 284.355 931.664 278.661 927.952 274.806L926.511 276.194C929.732 279.539 931.431 284.645 931.431 291.7H933.431ZM927.952 274.806C924.235 270.946 918.765 269.1 911.731 269.1V271.1C918.431 271.1 923.295 272.854 926.511 276.194L927.952 274.806Z" fill="#AC04EC" mask="url(#path-1-outside-1_1_25)"/>
<g filter="url(#filter1_b_1_25)">
<path d="M431.369 25.7671C482.886 18.1444 543.061 19.6229 582.372 53.7612C621.797 87.999 612.356 151.083 631.56 199.622C647.481 239.857 683.1 271.942 685.803 315.125C688.56 359.192 661.727 397.813 646.558 439.28C628.246 489.32 632.229 556.314 587.137 584.743C542.373 612.966 482.236 589.556 431.365 574.954C388.986 562.795 359.06 528.306 319.907 508.041C278.408 486.561 226.892 485.239 193.981 452.082C157.699 415.529 131.757 366.5 128.417 315.123C125.007 262.691 142.689 208.565 175.472 167.486C206.711 128.342 260.323 119.194 304.145 94.9205C347.103 71.1368 382.789 32.9564 431.369 25.7671Z" fill="#AC04EC"/>
</g>
<path d="M321.1 257.4V340.8C321.1 353.933 318.367 364.833 312.9 373.5C307.5 382.167 299.567 389.067 289.1 394.2C278.633 399.4 265.867 403.367 250.8 406.1L247.2 388.9C257.667 386.9 266.767 384.133 274.5 380.6C282.233 377.067 288.2 372.233 292.4 366.1C296.6 359.967 298.7 352.033 298.7 342.3V273.8H257V257.4H321.1ZM303.6 205.7C307.933 205.7 311.467 207.033 314.2 209.7C316.933 212.367 318.3 215.7 318.3 219.7C318.3 223.7 316.933 227.067 314.2 229.8C311.467 232.533 307.933 233.9 303.6 233.9C299.267 233.9 295.733 232.533 293 229.8C290.333 227.067 289 223.7 289 219.7C289 215.7 290.333 212.367 293 209.7C295.733 207.033 299.267 205.7 303.6 205.7ZM390.122 348.5C397.122 348.5 402.689 347.267 406.822 344.8C410.955 342.267 413.022 338.8 413.022 334.4C413.022 331.533 412.422 329.1 411.222 327.1C410.022 325.033 407.622 323.167 404.022 321.5C400.422 319.767 394.955 317.967 387.622 316.1C380.689 314.3 374.589 312.167 369.322 309.7C364.122 307.233 360.089 304.033 357.222 300.1C354.355 296.167 352.922 291.1 352.922 284.9C352.922 278.833 354.622 273.533 358.022 269C361.422 264.467 366.289 260.933 372.622 258.4C379.022 255.867 386.522 254.6 395.122 254.6C403.989 254.6 411.722 255.767 418.322 258.1C424.922 260.433 430.555 263.333 435.222 266.8L425.822 280.9C421.689 278.167 417.155 275.933 412.222 274.2C407.355 272.467 401.855 271.6 395.722 271.6C388.589 271.6 383.455 272.667 380.322 274.8C377.255 276.933 375.722 279.767 375.722 283.3C375.722 285.9 376.489 288.1 378.022 289.9C379.622 291.633 382.355 293.267 386.222 294.8C390.089 296.267 395.555 298 402.622 300C409.489 301.867 415.455 304.067 420.522 306.6C425.655 309.133 429.622 312.5 432.422 316.7C435.289 320.833 436.722 326.233 436.722 332.9C436.722 340.5 434.522 346.733 430.122 351.6C425.789 356.4 420.055 359.967 412.922 362.3C405.855 364.567 398.255 365.7 390.122 365.7C380.322 365.7 371.855 364.3 364.722 361.5C357.589 358.633 351.589 355.067 346.722 350.8L358.622 337.2C362.755 340.533 367.489 343.267 372.822 345.4C378.155 347.467 383.922 348.5 390.122 348.5ZM497.944 254.6C508.277 254.6 516.977 256.9 524.044 261.5C531.11 266.1 536.444 272.533 540.044 280.8C543.71 289.067 545.544 298.8 545.544 310C545.544 321.133 543.677 330.9 539.944 339.3C536.277 347.633 530.877 354.133 523.744 358.8C516.677 363.4 508.044 365.7 497.844 365.7C487.644 365.7 478.977 363.467 471.844 359C464.777 354.467 459.377 348.033 455.644 339.7C451.977 331.367 450.144 321.533 450.144 310.2C450.144 299.2 451.977 289.533 455.644 281.2C459.377 272.867 464.81 266.367 471.944 261.7C479.077 256.967 487.744 254.6 497.944 254.6ZM497.944 272C489.877 272 483.81 275.1 479.744 281.3C475.677 287.433 473.644 297.067 473.644 310.2C473.644 323.267 475.644 332.9 479.644 339.1C483.71 345.3 489.777 348.4 497.844 348.4C505.91 348.4 511.944 345.3 515.944 339.1C520.01 332.9 522.044 323.2 522.044 310C522.044 297 520.044 287.433 516.044 281.3C512.044 275.1 506.01 272 497.944 272ZM559.566 363V257.4H578.866L580.566 271.1C584.966 265.7 590.166 261.6 596.166 258.8C602.166 256 608.332 254.6 614.666 254.6C624.532 254.6 631.899 257.367 636.766 262.9C641.699 268.367 644.166 276.067 644.166 286V363H621.766V297.1C621.766 290.967 621.399 286.033 620.666 282.3C619.932 278.567 618.466 275.867 616.266 274.2C614.132 272.533 610.932 271.7 606.666 271.7C603.266 271.7 600.032 272.433 596.966 273.9C593.899 275.367 591.099 277.3 588.566 279.7C586.032 282.033 583.832 284.533 581.966 287.2V363H559.566Z" fill="white"/>
</g>
<defs>
<filter id="filter0_ddddd_1_25" x="0" y="0" width="1115" height="1184" filterUnits="userSpaceOnUse" color-interpolation-filters="sRGB">
<feFlood flood-opacity="0" result="BackgroundImageFix"/>
<feColorMatrix in="SourceAlpha" type="matrix" values="0 0 0 0 0 0 0 0 0 0 0 0 0 0 0 0 0 0 127 0" result="hardAlpha"/>
<feOffset dy="18"/>
<feGaussianBlur stdDeviation="20"/>
<feColorMatrix type="matrix" values="0 0 0 0 0 0 0 0 0 0 0 0 0 0 0 0 0 0 0.29 0"/>
<feBlend mode="normal" in2="BackgroundImageFix" result="effect1_dropShadow_1_25"/>
<feColorMatrix in="SourceAlpha" type="matrix" values="0 0 0 0 0 0 0 0 0 0 0 0 0 0 0 0 0 0 127 0" result="hardAlpha"/>
<feOffset dy="73"/>
<feGaussianBlur stdDeviation="36.5"/>
<feColorMatrix type="matrix" values="0 0 0 0 0 0 0 0 0 0 0 0 0 0 0 0 0 0 0.26 0"/>
<feBlend mode="normal" in2="effect1_dropShadow_1_25" result="effect2_dropShadow_1_25"/>
<feColorMatrix in="SourceAlpha" type="matrix" values="0 0 0 0 0 0 0 0 0 0 0 0 0 0 0 0 0 0 127 0" result="hardAlpha"/>
<feOffset dy="165"/>
<feGaussianBlur stdDeviation="49.5"/>
<feColorMatrix type="matrix" values="0 0 0 0 0 0 0 0 0 0 0 0 0 0 0 0 0 0 0.15 0"/>
<feBlend mode="normal" in2="effect2_dropShadow_1_25" result="effect3_dropShadow_1_25"/>
<feColorMatrix in="SourceAlpha" type="matrix" values="0 0 0 0 0 0 0 0 0 0 0 0 0 0 0 0 0 0 127 0" result="hardAlpha"/>
<feOffset dy="293"/>
<feGaussianBlur stdDeviation="58.5"/>
<feColorMatrix type="matrix" values="0 0 0 0 0 0 0 0 0 0 0 0 0 0 0 0 0 0 0.04 0"/>
<feBlend mode="normal" in2="effect3_dropShadow_1_25" result="effect4_dropShadow_1_25"/>
<feColorMatrix in="SourceAlpha" type="matrix" values="0 0 0 0 0 0 0 0 0 0 0 0 0 0 0 0 0 0 127 0" result="hardAlpha"/>
<feOffset dy="458"/>
<feGaussianBlur stdDeviation="64"/>
<feColorMatrix type="matrix" values="0 0 0 0 0 0 0 0 0 0 0 0 0 0 0 0 0 0 0.01 0"/>
<feBlend mode="normal" in2="effect4_dropShadow_1_25" result="effect5_dropShadow_1_25"/>
<feBlend mode="normal" in="SourceGraphic" in2="effect5_dropShadow_1_25" result="shape"/>
</filter>
<filter id="filter1_b_1_25" x="104.2" y="-1.8" width="605.6" height="623.6" filterUnits="userSpaceOnUse" color-interpolation-filters="sRGB">
<feFlood flood-opacity="0" result="BackgroundImageFix"/>
<feGaussianBlur in="BackgroundImageFix" stdDeviation="11.9"/>
<feComposite in2="SourceAlpha" operator="in" result="effect1_backgroundBlur_1_25"/>
<feBlend mode="normal" in="SourceGraphic" in2="effect1_backgroundBlur_1_25" result="shape"/>
</filter>
<clipPath id="clip0_1_25">
<rect width="859" height="576" fill="white" transform="translate(128 22)"/>
</clipPath>
</defs>
</svg>
