<svg xmlns="http://www.w3.org/2000/svg" width="424.934" height="140.204" viewBox="0 0 424.934 140.204">
  <defs>
    <style>
      .cls-1 {
        fill: #ac04ec;
      }

      .cls-2 {
        stroke: #fff;
        stroke-width: 3px;
        font-size: 82px;
        font-family: FiraCode-Medium, Fira Code;
        font-weight: 500;
      }
    </style>
  </defs>
  <g id="Group_2" data-name="Group 2" transform="translate(-1137.066 -134.621)">
    <path id="Path_3" data-name="Path 3" class="cls-1" d="M218.526,157.405c12.532-1.855,27.168-1.5,36.73,6.814,9.59,8.334,7.293,23.689,11.966,35.5,3.873,9.794,12.537,17.6,13.194,28.114.671,10.726-5.855,20.127-9.546,30.221-4.454,12.18-3.485,28.487-14.454,35.407-10.888,6.87-25.516,1.171-37.89-2.383-10.308-2.961-17.588-11.354-27.111-16.287-10.094-5.228-22.625-5.55-30.63-13.621-8.825-8.9-15.135-20.831-15.948-33.337A53.116,53.116,0,0,1,156.282,191.9c7.6-9.528,20.639-11.755,31.3-17.662,10.449-5.791,19.128-15.084,30.945-16.834" transform="translate(992.331 -21.867)"/>
    <text id="jsoning" class="cls-2" transform="translate(1205 231)"><tspan x="0" y="0">jsoning</tspan></text>
  </g>
</svg>
