<svg width="863" height="584" viewBox="0 0 863 584" fill="none" xmlns="http://www.w3.org/2000/svg">
<g clip-path="url(#clip0_1_25)" filter="url(#filter0_d_1_25)">
<g filter="url(#filter1_d_1_25)">
<mask id="path-1-outside-1_1_25" maskUnits="userSpaceOnUse" x="122" y="182" width="722" height="204" fill="black">
<rect fill="white" x="122" y="182" width="722" height="204"/>
<path d="M197.1 235.4V318.8C197.1 331.933 194.367 342.833 188.9 351.5C183.5 360.167 175.567 367.067 165.1 372.2C154.633 377.4 141.867 381.367 126.8 384.1L123.2 366.9C133.667 364.9 142.767 362.133 150.5 358.6C158.233 355.067 164.2 350.233 168.4 344.1C172.6 337.967 174.7 330.033 174.7 320.3V251.8H133V235.4H197.1ZM179.6 183.7C183.933 183.7 187.467 185.033 190.2 187.7C192.933 190.367 194.3 193.7 194.3 197.7C194.3 201.7 192.933 205.067 190.2 207.8C187.467 210.533 183.933 211.9 179.6 211.9C175.267 211.9 171.733 210.533 169 207.8C166.333 205.067 165 201.7 165 197.7C165 193.7 166.333 190.367 169 187.7C171.733 185.033 175.267 183.7 179.6 183.7ZM266.122 326.5C273.122 326.5 278.689 325.267 282.822 322.8C286.955 320.267 289.022 316.8 289.022 312.4C289.022 309.533 288.422 307.1 287.222 305.1C286.022 303.033 283.622 301.167 280.022 299.5C276.422 297.767 270.955 295.967 263.622 294.1C256.689 292.3 250.589 290.167 245.322 287.7C240.122 285.233 236.089 282.033 233.222 278.1C230.355 274.167 228.922 269.1 228.922 262.9C228.922 256.833 230.622 251.533 234.022 247C237.422 242.467 242.289 238.933 248.622 236.4C255.022 233.867 262.522 232.6 271.122 232.6C279.989 232.6 287.722 233.767 294.322 236.1C300.922 238.433 306.555 241.333 311.222 244.8L301.822 258.9C297.689 256.167 293.155 253.933 288.222 252.2C283.355 250.467 277.855 249.6 271.722 249.6C264.589 249.6 259.455 250.667 256.322 252.8C253.255 254.933 251.722 257.767 251.722 261.3C251.722 263.9 252.489 266.1 254.022 267.9C255.622 269.633 258.355 271.267 262.222 272.8C266.089 274.267 271.555 276 278.622 278C285.489 279.867 291.455 282.067 296.522 284.6C301.655 287.133 305.622 290.5 308.422 294.7C311.289 298.833 312.722 304.233 312.722 310.9C312.722 318.5 310.522 324.733 306.122 329.6C301.789 334.4 296.055 337.967 288.922 340.3C281.855 342.567 274.255 343.7 266.122 343.7C256.322 343.7 247.855 342.3 240.722 339.5C233.589 336.633 227.589 333.067 222.722 328.8L234.622 315.2C238.755 318.533 243.489 321.267 248.822 323.4C254.155 325.467 259.922 326.5 266.122 326.5ZM373.944 232.6C384.277 232.6 392.977 234.9 400.044 239.5C407.11 244.1 412.444 250.533 416.044 258.8C419.71 267.067 421.544 276.8 421.544 288C421.544 299.133 419.677 308.9 415.944 317.3C412.277 325.633 406.877 332.133 399.744 336.8C392.677 341.4 384.044 343.7 373.844 343.7C363.644 343.7 354.977 341.467 347.844 337C340.777 332.467 335.377 326.033 331.644 317.7C327.977 309.367 326.144 299.533 326.144 288.2C326.144 277.2 327.977 267.533 331.644 259.2C335.377 250.867 340.81 244.367 347.944 239.7C355.077 234.967 363.744 232.6 373.944 232.6ZM373.944 250C365.877 250 359.81 253.1 355.744 259.3C351.677 265.433 349.644 275.067 349.644 288.2C349.644 301.267 351.644 310.9 355.644 317.1C359.71 323.3 365.777 326.4 373.844 326.4C381.91 326.4 387.944 323.3 391.944 317.1C396.01 310.9 398.044 301.2 398.044 288C398.044 275 396.044 265.433 392.044 259.3C388.044 253.1 382.01 250 373.944 250ZM435.566 341V235.4H454.866L456.566 249.1C460.966 243.7 466.166 239.6 472.166 236.8C478.166 234 484.332 232.6 490.666 232.6C500.532 232.6 507.899 235.367 512.766 240.9C517.699 246.367 520.166 254.067 520.166 264V341H497.766V275.1C497.766 268.967 497.399 264.033 496.666 260.3C495.932 256.567 494.466 253.867 492.266 252.2C490.132 250.533 486.932 249.7 482.666 249.7C479.266 249.7 476.032 250.433 472.966 251.9C469.899 253.367 467.099 255.3 464.566 257.7C462.032 260.033 459.832 262.533 457.966 265.2V341H435.566ZM597.188 235.4V324.6H625.888V341H543.188V324.6H574.788V251.8H544.188V235.4H597.188ZM581.588 183.7C585.988 183.7 589.521 185.033 592.188 187.7C594.921 190.367 596.288 193.7 596.288 197.7C596.288 201.7 594.921 205.067 592.188 207.8C589.521 210.533 585.988 211.9 581.588 211.9C577.321 211.9 573.821 210.533 571.088 207.8C568.354 205.067 566.988 201.7 566.988 197.7C566.988 193.7 568.354 190.367 571.088 187.7C573.821 185.033 577.321 183.7 581.588 183.7ZM643.409 341V235.4H662.709L664.409 249.1C668.809 243.7 674.009 239.6 680.009 236.8C686.009 234 692.176 232.6 698.509 232.6C708.376 232.6 715.743 235.367 720.609 240.9C725.543 246.367 728.009 254.067 728.009 264V341H705.609V275.1C705.609 268.967 705.243 264.033 704.509 260.3C703.776 256.567 702.309 253.867 700.109 252.2C697.976 250.533 694.776 249.7 690.509 249.7C687.109 249.7 683.876 250.433 680.809 251.9C677.743 253.367 674.943 255.3 672.409 257.7C669.876 260.033 667.676 262.533 665.809 265.2V341H643.409ZM836.231 222L842.231 240.6C838.031 242 833.398 242.933 828.331 243.4C823.331 243.867 817.731 244.1 811.531 244.1C817.865 246.9 822.631 250.5 825.831 254.9C829.031 259.233 830.631 264.567 830.631 270.9C830.631 277.767 828.965 283.9 825.631 289.3C822.298 294.7 817.531 298.933 811.331 302C805.131 305.067 797.698 306.6 789.031 306.6C785.965 306.6 783.298 306.467 781.031 306.2C778.831 305.933 776.665 305.5 774.531 304.9C773.198 305.833 772.065 307.1 771.131 308.7C770.265 310.233 769.831 311.867 769.831 313.6C769.831 315.733 770.698 317.6 772.431 319.2C774.231 320.733 777.765 321.5 783.031 321.5H801.431C808.965 321.5 815.598 322.8 821.331 325.4C827.131 327.933 831.665 331.433 834.931 335.9C838.265 340.3 839.931 345.3 839.931 350.9C839.931 361.433 835.398 369.6 826.331 375.4C817.265 381.2 804.198 384.1 787.131 384.1C775.065 384.1 765.598 382.867 758.731 380.4C751.865 377.933 747.031 374.267 744.231 369.4C741.431 364.533 740.031 358.567 740.031 351.5H760.131C760.131 355.167 760.831 358.2 762.231 360.6C763.698 363 766.398 364.8 770.331 366C774.265 367.2 779.931 367.8 787.331 367.8C794.731 367.8 800.598 367.167 804.931 365.9C809.331 364.7 812.498 362.933 814.431 360.6C816.431 358.333 817.431 355.6 817.431 352.4C817.431 348.133 815.565 344.833 811.831 342.5C808.098 340.167 803.098 339 796.831 339H778.731C768.731 339 761.398 336.967 756.731 332.9C752.131 328.833 749.831 324.1 749.831 318.7C749.831 315.1 750.831 311.633 752.831 308.3C754.898 304.967 757.831 302.067 761.631 299.6C755.298 296.267 750.665 292.233 747.731 287.5C744.865 282.7 743.431 276.9 743.431 270.1C743.431 262.633 745.298 256.1 749.031 250.5C752.765 244.9 757.931 240.533 764.531 237.4C771.198 234.267 778.865 232.7 787.531 232.7C795.998 232.7 803.065 232.267 808.731 231.4C814.398 230.467 819.331 229.167 823.531 227.5C827.798 225.833 832.031 224 836.231 222ZM787.731 248.1C780.598 248.1 775.231 250.133 771.631 254.2C768.031 258.2 766.231 263.433 766.231 269.9C766.231 276.567 768.065 281.933 771.731 286C775.465 290 780.898 292 788.031 292C794.631 292 799.665 290.067 803.131 286.2C806.665 282.333 808.431 276.833 808.431 269.7C808.431 262.5 806.698 257.1 803.231 253.5C799.765 249.9 794.598 248.1 787.731 248.1Z"/>
</mask>
<path d="M197.1 235.4V318.8C197.1 331.933 194.367 342.833 188.9 351.5C183.5 360.167 175.567 367.067 165.1 372.2C154.633 377.4 141.867 381.367 126.8 384.1L123.2 366.9C133.667 364.9 142.767 362.133 150.5 358.6C158.233 355.067 164.2 350.233 168.4 344.1C172.6 337.967 174.7 330.033 174.7 320.3V251.8H133V235.4H197.1ZM179.6 183.7C183.933 183.7 187.467 185.033 190.2 187.7C192.933 190.367 194.3 193.7 194.3 197.7C194.3 201.7 192.933 205.067 190.2 207.8C187.467 210.533 183.933 211.9 179.6 211.9C175.267 211.9 171.733 210.533 169 207.8C166.333 205.067 165 201.7 165 197.7C165 193.7 166.333 190.367 169 187.7C171.733 185.033 175.267 183.7 179.6 183.7ZM266.122 326.5C273.122 326.5 278.689 325.267 282.822 322.8C286.955 320.267 289.022 316.8 289.022 312.4C289.022 309.533 288.422 307.1 287.222 305.1C286.022 303.033 283.622 301.167 280.022 299.5C276.422 297.767 270.955 295.967 263.622 294.1C256.689 292.3 250.589 290.167 245.322 287.7C240.122 285.233 236.089 282.033 233.222 278.1C230.355 274.167 228.922 269.1 228.922 262.9C228.922 256.833 230.622 251.533 234.022 247C237.422 242.467 242.289 238.933 248.622 236.4C255.022 233.867 262.522 232.6 271.122 232.6C279.989 232.6 287.722 233.767 294.322 236.1C300.922 238.433 306.555 241.333 311.222 244.8L301.822 258.9C297.689 256.167 293.155 253.933 288.222 252.2C283.355 250.467 277.855 249.6 271.722 249.6C264.589 249.6 259.455 250.667 256.322 252.8C253.255 254.933 251.722 257.767 251.722 261.3C251.722 263.9 252.489 266.1 254.022 267.9C255.622 269.633 258.355 271.267 262.222 272.8C266.089 274.267 271.555 276 278.622 278C285.489 279.867 291.455 282.067 296.522 284.6C301.655 287.133 305.622 290.5 308.422 294.7C311.289 298.833 312.722 304.233 312.722 310.9C312.722 318.5 310.522 324.733 306.122 329.6C301.789 334.4 296.055 337.967 288.922 340.3C281.855 342.567 274.255 343.7 266.122 343.7C256.322 343.7 247.855 342.3 240.722 339.5C233.589 336.633 227.589 333.067 222.722 328.8L234.622 315.2C238.755 318.533 243.489 321.267 248.822 323.4C254.155 325.467 259.922 326.5 266.122 326.5ZM373.944 232.6C384.277 232.6 392.977 234.9 400.044 239.5C407.11 244.1 412.444 250.533 416.044 258.8C419.71 267.067 421.544 276.8 421.544 288C421.544 299.133 419.677 308.9 415.944 317.3C412.277 325.633 406.877 332.133 399.744 336.8C392.677 341.4 384.044 343.7 373.844 343.7C363.644 343.7 354.977 341.467 347.844 337C340.777 332.467 335.377 326.033 331.644 317.7C327.977 309.367 326.144 299.533 326.144 288.2C326.144 277.2 327.977 267.533 331.644 259.2C335.377 250.867 340.81 244.367 347.944 239.7C355.077 234.967 363.744 232.6 373.944 232.6ZM373.944 250C365.877 250 359.81 253.1 355.744 259.3C351.677 265.433 349.644 275.067 349.644 288.2C349.644 301.267 351.644 310.9 355.644 317.1C359.71 323.3 365.777 326.4 373.844 326.4C381.91 326.4 387.944 323.3 391.944 317.1C396.01 310.9 398.044 301.2 398.044 288C398.044 275 396.044 265.433 392.044 259.3C388.044 253.1 382.01 250 373.944 250ZM435.566 341V235.4H454.866L456.566 249.1C460.966 243.7 466.166 239.6 472.166 236.8C478.166 234 484.332 232.6 490.666 232.6C500.532 232.6 507.899 235.367 512.766 240.9C517.699 246.367 520.166 254.067 520.166 264V341H497.766V275.1C497.766 268.967 497.399 264.033 496.666 260.3C495.932 256.567 494.466 253.867 492.266 252.2C490.132 250.533 486.932 249.7 482.666 249.7C479.266 249.7 476.032 250.433 472.966 251.9C469.899 253.367 467.099 255.3 464.566 257.7C462.032 260.033 459.832 262.533 457.966 265.2V341H435.566ZM597.188 235.4V324.6H625.888V341H543.188V324.6H574.788V251.8H544.188V235.4H597.188ZM581.588 183.7C585.988 183.7 589.521 185.033 592.188 187.7C594.921 190.367 596.288 193.7 596.288 197.7C596.288 201.7 594.921 205.067 592.188 207.8C589.521 210.533 585.988 211.9 581.588 211.9C577.321 211.9 573.821 210.533 571.088 207.8C568.354 205.067 566.988 201.7 566.988 197.7C566.988 193.7 568.354 190.367 571.088 187.7C573.821 185.033 577.321 183.7 581.588 183.7ZM643.409 341V235.4H662.709L664.409 249.1C668.809 243.7 674.009 239.6 680.009 236.8C686.009 234 692.176 232.6 698.509 232.6C708.376 232.6 715.743 235.367 720.609 240.9C725.543 246.367 728.009 254.067 728.009 264V341H705.609V275.1C705.609 268.967 705.243 264.033 704.509 260.3C703.776 256.567 702.309 253.867 700.109 252.2C697.976 250.533 694.776 249.7 690.509 249.7C687.109 249.7 683.876 250.433 680.809 251.9C677.743 253.367 674.943 255.3 672.409 257.7C669.876 260.033 667.676 262.533 665.809 265.2V341H643.409ZM836.231 222L842.231 240.6C838.031 242 833.398 242.933 828.331 243.4C823.331 243.867 817.731 244.1 811.531 244.1C817.865 246.9 822.631 250.5 825.831 254.9C829.031 259.233 830.631 264.567 830.631 270.9C830.631 277.767 828.965 283.9 825.631 289.3C822.298 294.7 817.531 298.933 811.331 302C805.131 305.067 797.698 306.6 789.031 306.6C785.965 306.6 783.298 306.467 781.031 306.2C778.831 305.933 776.665 305.5 774.531 304.9C773.198 305.833 772.065 307.1 771.131 308.7C770.265 310.233 769.831 311.867 769.831 313.6C769.831 315.733 770.698 317.6 772.431 319.2C774.231 320.733 777.765 321.5 783.031 321.5H801.431C808.965 321.5 815.598 322.8 821.331 325.4C827.131 327.933 831.665 331.433 834.931 335.9C838.265 340.3 839.931 345.3 839.931 350.9C839.931 361.433 835.398 369.6 826.331 375.4C817.265 381.2 804.198 384.1 787.131 384.1C775.065 384.1 765.598 382.867 758.731 380.4C751.865 377.933 747.031 374.267 744.231 369.4C741.431 364.533 740.031 358.567 740.031 351.5H760.131C760.131 355.167 760.831 358.2 762.231 360.6C763.698 363 766.398 364.8 770.331 366C774.265 367.2 779.931 367.8 787.331 367.8C794.731 367.8 800.598 367.167 804.931 365.9C809.331 364.7 812.498 362.933 814.431 360.6C816.431 358.333 817.431 355.6 817.431 352.4C817.431 348.133 815.565 344.833 811.831 342.5C808.098 340.167 803.098 339 796.831 339H778.731C768.731 339 761.398 336.967 756.731 332.9C752.131 328.833 749.831 324.1 749.831 318.7C749.831 315.1 750.831 311.633 752.831 308.3C754.898 304.967 757.831 302.067 761.631 299.6C755.298 296.267 750.665 292.233 747.731 287.5C744.865 282.7 743.431 276.9 743.431 270.1C743.431 262.633 745.298 256.1 749.031 250.5C752.765 244.9 757.931 240.533 764.531 237.4C771.198 234.267 778.865 232.7 787.531 232.7C795.998 232.7 803.065 232.267 808.731 231.4C814.398 230.467 819.331 229.167 823.531 227.5C827.798 225.833 832.031 224 836.231 222ZM787.731 248.1C780.598 248.1 775.231 250.133 771.631 254.2C768.031 258.2 766.231 263.433 766.231 269.9C766.231 276.567 768.065 281.933 771.731 286C775.465 290 780.898 292 788.031 292C794.631 292 799.665 290.067 803.131 286.2C806.665 282.333 808.431 276.833 808.431 269.7C808.431 262.5 806.698 257.1 803.231 253.5C799.765 249.9 794.598 248.1 787.731 248.1Z" fill="white"/>
<path d="M197.1 235.4H198.1V234.4H197.1V235.4ZM188.9 351.5L188.054 350.966L188.051 350.971L188.9 351.5ZM165.1 372.2L164.66 371.302L164.655 371.304L165.1 372.2ZM126.8 384.1L125.821 384.305L126.021 385.258L126.979 385.084L126.8 384.1ZM123.2 366.9L123.012 365.918L122.013 366.109L122.221 367.105L123.2 366.9ZM150.5 358.6L150.084 357.69L150.5 358.6ZM168.4 344.1L167.575 343.535L168.4 344.1ZM174.7 251.8H175.7V250.8H174.7V251.8ZM133 251.8H132V252.8H133V251.8ZM133 235.4V234.4H132V235.4H133ZM190.2 187.7L190.898 186.984L190.2 187.7ZM190.2 207.8L190.907 208.507L190.2 207.8ZM169 207.8L168.284 208.498L168.293 208.507L169 207.8ZM169 187.7L168.302 186.984L168.293 186.993L169 187.7ZM196.1 235.4V318.8H198.1V235.4H196.1ZM196.1 318.8C196.1 331.797 193.395 342.499 188.054 350.966L189.746 352.034C195.338 343.168 198.1 332.07 198.1 318.8H196.1ZM188.051 350.971C182.764 359.458 174.983 366.239 164.66 371.302L165.54 373.098C176.151 367.894 184.236 360.876 189.749 352.029L188.051 350.971ZM164.655 371.304C154.294 376.452 141.623 380.395 126.621 383.116L126.979 385.084C142.111 382.339 154.973 378.348 165.545 373.096L164.655 371.304ZM127.779 383.895L124.179 366.695L122.221 367.105L125.821 384.305L127.779 383.895ZM123.388 367.882C133.914 365.871 143.094 363.083 150.916 359.51L150.084 357.69C142.439 361.183 133.419 363.929 123.012 365.918L123.388 367.882ZM150.916 359.51C158.79 355.912 164.908 350.969 169.225 344.665L167.575 343.535C163.492 349.498 157.677 354.222 150.084 357.69L150.916 359.51ZM169.225 344.665C173.57 338.321 175.7 330.173 175.7 320.3H173.7C173.7 329.893 171.63 337.613 167.575 343.535L169.225 344.665ZM175.7 320.3V251.8H173.7V320.3H175.7ZM174.7 250.8H133V252.8H174.7V250.8ZM134 251.8V235.4H132V251.8H134ZM133 236.4H197.1V234.4H133V236.4ZM179.6 184.7C183.711 184.7 186.981 185.956 189.502 188.416L190.898 186.984C187.953 184.11 184.156 182.7 179.6 182.7V184.7ZM189.502 188.416C192.032 190.884 193.3 193.955 193.3 197.7H195.3C195.3 193.445 193.835 189.849 190.898 186.984L189.502 188.416ZM193.3 197.7C193.3 201.445 192.032 204.554 189.493 207.093L190.907 208.507C193.835 205.579 195.3 201.955 195.3 197.7H193.3ZM189.493 207.093C186.971 209.615 183.703 210.9 179.6 210.9V212.9C184.163 212.9 187.963 211.451 190.907 208.507L189.493 207.093ZM179.6 210.9C175.497 210.9 172.229 209.615 169.707 207.093L168.293 208.507C171.237 211.451 175.037 212.9 179.6 212.9V210.9ZM169.716 207.102C167.241 204.565 166 201.453 166 197.7H164C164 201.947 165.426 205.569 168.284 208.498L169.716 207.102ZM166 197.7C166 193.947 167.24 190.874 169.707 188.407L168.293 186.993C165.426 189.859 164 193.453 164 197.7H166ZM169.698 188.416C172.219 185.956 175.489 184.7 179.6 184.7V182.7C175.044 182.7 171.247 184.11 168.302 186.984L169.698 188.416ZM282.822 322.8L283.334 323.659L283.344 323.653L282.822 322.8ZM287.222 305.1L286.357 305.602L286.361 305.608L286.364 305.614L287.222 305.1ZM280.022 299.5L279.588 300.401L279.595 300.404L279.602 300.407L280.022 299.5ZM263.622 294.1L263.371 295.068L263.375 295.069L263.622 294.1ZM245.322 287.7L244.893 288.604L244.898 288.606L245.322 287.7ZM233.222 278.1L232.414 278.689L233.222 278.1ZM234.022 247L233.222 246.4L234.022 247ZM248.622 236.4L248.254 235.47L248.25 235.472L248.622 236.4ZM294.322 236.1L293.989 237.043L294.322 236.1ZM311.222 244.8L312.054 245.355L312.581 244.564L311.818 243.997L311.222 244.8ZM301.822 258.9L301.27 259.734L302.101 260.284L302.654 259.455L301.822 258.9ZM288.222 252.2L287.886 253.142L287.89 253.143L288.222 252.2ZM256.322 252.8L255.759 251.973L255.751 251.979L256.322 252.8ZM254.022 267.9L253.261 268.548L253.274 268.564L253.287 268.578L254.022 267.9ZM262.222 272.8L261.853 273.73L261.86 273.732L261.867 273.735L262.222 272.8ZM278.622 278L278.35 278.962L278.36 278.965L278.622 278ZM296.522 284.6L296.075 285.494L296.079 285.497L296.522 284.6ZM308.422 294.7L307.59 295.255L307.595 295.262L307.6 295.27L308.422 294.7ZM306.122 329.6L305.38 328.929L305.38 328.93L306.122 329.6ZM288.922 340.3L289.227 341.252L289.233 341.25L288.922 340.3ZM240.722 339.5L240.349 340.428L240.356 340.431L240.722 339.5ZM222.722 328.8L221.969 328.141L221.311 328.893L222.063 329.552L222.722 328.8ZM234.622 315.2L235.25 314.422L234.502 313.819L233.869 314.541L234.622 315.2ZM248.822 323.4L248.45 324.329L248.461 324.332L248.822 323.4ZM266.122 327.5C273.225 327.5 278.991 326.251 283.334 323.659L282.309 321.941C278.386 324.283 273.018 325.5 266.122 325.5V327.5ZM283.344 323.653C287.738 320.96 290.022 317.188 290.022 312.4H288.022C288.022 316.412 286.172 319.574 282.299 321.947L283.344 323.653ZM290.022 312.4C290.022 309.393 289.392 306.773 288.079 304.586L286.364 305.614C287.452 307.427 288.022 309.673 288.022 312.4H290.022ZM288.087 304.598C286.736 302.271 284.117 300.294 280.442 298.593L279.602 300.407C283.127 302.039 285.308 303.796 286.357 305.602L288.087 304.598ZM280.456 298.599C276.764 296.822 271.22 295.002 263.869 293.131L263.375 295.069C270.69 296.931 276.08 298.712 279.588 300.401L280.456 298.599ZM263.873 293.132C256.986 291.344 250.946 289.23 245.746 286.794L244.898 288.606C250.231 291.103 256.391 293.256 263.371 295.068L263.873 293.132ZM245.75 286.796C240.674 284.388 236.782 281.287 234.03 277.511L232.414 278.689C235.395 282.78 239.57 286.078 244.893 288.604L245.75 286.796ZM234.03 277.511C231.318 273.79 229.922 268.947 229.922 262.9H227.922C227.922 269.253 229.392 274.543 232.414 278.689L234.03 277.511ZM229.922 262.9C229.922 257.033 231.561 251.948 234.822 247.6L233.222 246.4C229.683 251.119 227.922 256.633 227.922 262.9H229.922ZM234.822 247.6C238.091 243.241 242.795 239.808 248.993 237.328L248.25 235.472C241.782 238.059 236.752 241.693 233.222 246.4L234.822 247.6ZM248.99 237.33C255.248 234.853 262.618 233.6 271.122 233.6V231.6C262.426 231.6 254.796 232.881 248.254 235.47L248.99 237.33ZM271.122 233.6C279.904 233.6 287.52 234.756 293.989 237.043L294.655 235.157C287.924 232.777 280.073 231.6 271.122 231.6V233.6ZM293.989 237.043C300.513 239.349 306.053 242.206 310.626 245.603L311.818 243.997C307.057 240.46 301.331 237.517 294.655 235.157L293.989 237.043ZM310.39 244.245L300.99 258.345L302.654 259.455L312.054 245.355L310.39 244.245ZM302.373 258.066C298.168 255.285 293.56 253.016 288.553 251.257L287.89 253.143C292.75 254.851 297.209 257.049 301.27 259.734L302.373 258.066ZM288.557 251.258C283.565 249.48 277.949 248.6 271.722 248.6V250.6C277.762 250.6 283.145 251.453 287.886 253.142L288.557 251.258ZM271.722 248.6C264.539 248.6 259.15 249.665 255.759 251.973L256.885 253.627C259.76 251.669 264.638 250.6 271.722 250.6V248.6ZM255.751 251.979C252.434 254.287 250.722 257.418 250.722 261.3H252.722C252.722 258.116 254.077 255.58 256.893 253.621L255.751 251.979ZM250.722 261.3C250.722 264.112 251.557 266.549 253.261 268.548L254.783 267.252C253.42 265.651 252.722 263.688 252.722 261.3H250.722ZM253.287 268.578C255.039 270.476 257.938 272.177 261.853 273.73L262.59 271.87C258.772 270.356 256.205 268.791 254.757 267.222L253.287 268.578ZM261.867 273.735C265.774 275.217 271.273 276.959 278.35 278.962L278.894 277.038C271.838 275.041 266.403 273.316 262.577 271.865L261.867 273.735ZM278.36 278.965C285.178 280.818 291.08 282.997 296.075 285.494L296.969 283.706C291.831 281.136 285.799 278.915 278.884 277.035L278.36 278.965ZM296.079 285.497C301.077 287.963 304.9 291.22 307.59 295.255L309.254 294.145C306.344 289.78 302.234 286.304 296.964 283.703L296.079 285.497ZM307.6 295.27C310.318 299.189 311.722 304.372 311.722 310.9H313.722C313.722 304.095 312.259 298.477 309.244 294.13L307.6 295.27ZM311.722 310.9C311.722 318.294 309.588 324.275 305.38 328.929L306.864 330.271C311.456 325.191 313.722 318.706 313.722 310.9H311.722ZM305.38 328.93C301.181 333.581 295.605 337.062 288.611 339.35L289.233 341.25C296.505 338.872 302.396 335.219 306.864 330.27L305.38 328.93ZM288.616 339.348C281.657 341.58 274.161 342.7 266.122 342.7V344.7C274.349 344.7 282.053 343.553 289.227 341.252L288.616 339.348ZM266.122 342.7C256.414 342.7 248.077 341.313 241.087 338.569L240.356 340.431C247.634 343.287 256.23 344.7 266.122 344.7V342.7ZM241.095 338.572C234.047 335.74 228.149 332.228 223.381 328.048L222.063 329.552C227.028 333.905 233.13 337.527 240.349 340.428L241.095 338.572ZM223.474 329.458L235.374 315.859L233.869 314.541L221.969 328.141L223.474 329.458ZM233.994 315.978C238.211 319.379 243.032 322.161 248.45 324.328L249.193 322.472C243.945 320.372 239.299 317.688 235.25 314.422L233.994 315.978ZM248.461 324.332C253.918 326.447 259.809 327.5 266.122 327.5V325.5C260.035 325.5 254.392 324.486 249.183 322.468L248.461 324.332ZM400.044 239.5L400.589 238.662L400.044 239.5ZM416.044 258.8L415.127 259.199L415.13 259.205L416.044 258.8ZM415.944 317.3L415.03 316.894L415.028 316.897L415.944 317.3ZM399.744 336.8L400.289 337.638L400.291 337.637L399.744 336.8ZM347.844 337L347.304 337.842L347.313 337.848L347.844 337ZM331.644 317.7L330.728 318.103L330.731 318.109L331.644 317.7ZM331.644 259.2L330.731 258.791L330.728 258.797L331.644 259.2ZM347.944 239.7L348.491 240.537L348.497 240.533L347.944 239.7ZM355.744 259.3L356.577 259.853L356.58 259.848L355.744 259.3ZM355.644 317.1L354.803 317.642L354.808 317.648L355.644 317.1ZM391.944 317.1L391.108 316.552L391.103 316.558L391.944 317.1ZM392.044 259.3L391.203 259.842L391.206 259.846L392.044 259.3ZM373.944 233.6C384.127 233.6 392.627 235.865 399.498 240.338L400.589 238.662C393.327 233.935 384.427 231.6 373.944 231.6V233.6ZM399.498 240.338C406.389 244.824 411.599 251.099 415.127 259.199L416.961 258.401C413.288 249.968 407.832 243.376 400.589 238.662L399.498 240.338ZM415.13 259.205C418.728 267.318 420.544 276.907 420.544 288H422.544C422.544 276.693 420.693 266.815 416.958 258.395L415.13 259.205ZM420.544 288C420.544 299.022 418.696 308.646 415.03 316.894L416.858 317.706C420.658 309.154 422.544 299.244 422.544 288H420.544ZM415.028 316.897C411.434 325.066 406.156 331.41 399.196 335.963L400.291 337.637C407.598 332.857 413.12 326.201 416.859 317.703L415.028 316.897ZM399.198 335.962C392.325 340.436 383.891 342.7 373.844 342.7V344.7C384.196 344.7 393.029 342.364 400.289 337.638L399.198 335.962ZM373.844 342.7C363.791 342.7 355.318 340.5 348.374 336.152L347.313 337.848C354.636 342.433 363.496 344.7 373.844 344.7V342.7ZM348.384 336.158C341.495 331.739 336.217 325.463 332.556 317.291L330.731 318.109C334.537 326.603 340.059 333.194 347.304 337.842L348.384 336.158ZM332.559 317.297C328.96 309.118 327.144 299.428 327.144 288.2H325.144C325.144 299.639 326.994 309.615 330.728 318.103L332.559 317.297ZM327.144 288.2C327.144 277.31 328.959 267.786 332.559 259.603L330.728 258.797C326.996 267.281 325.144 277.09 325.144 288.2H327.144ZM332.556 259.609C336.217 251.437 341.53 245.091 348.491 240.537L347.396 238.863C340.091 243.642 334.537 250.296 330.731 258.791L332.556 259.609ZM348.497 240.533C355.437 235.928 363.902 233.6 373.944 233.6V231.6C363.585 231.6 354.717 234.005 347.391 238.867L348.497 240.533ZM373.944 249C365.575 249 359.178 252.242 354.908 258.752L356.58 259.848C360.443 253.958 366.179 251 373.944 251V249ZM354.91 258.747C350.679 265.129 348.644 275.005 348.644 288.2H350.644C350.644 275.129 352.675 265.738 356.577 259.853L354.91 258.747ZM348.644 288.2C348.644 301.33 350.646 311.198 354.803 317.642L356.484 316.558C352.641 310.602 350.644 301.204 350.644 288.2H348.644ZM354.808 317.648C359.078 324.158 365.475 327.4 373.844 327.4V325.4C366.079 325.4 360.343 322.442 356.48 316.552L354.808 317.648ZM373.844 327.4C382.212 327.4 388.58 324.158 392.784 317.642L391.103 316.558C387.307 322.442 381.608 325.4 373.844 325.4V327.4ZM392.78 317.648C397.008 311.202 399.044 301.262 399.044 288H397.044C397.044 301.138 395.013 310.598 391.108 316.552L392.78 317.648ZM399.044 288C399.044 274.937 397.041 265.133 392.881 258.754L391.206 259.846C395.046 265.734 397.044 275.063 397.044 288H399.044ZM392.884 258.758C388.68 252.242 382.312 249 373.944 249V251C381.708 251 387.407 253.958 391.203 259.842L392.884 258.758ZM435.566 341H434.566V342H435.566V341ZM435.566 235.4V234.4H434.566V235.4H435.566ZM454.866 235.4L455.858 235.277L455.749 234.4H454.866V235.4ZM456.566 249.1L455.573 249.223L455.862 251.547L457.341 249.732L456.566 249.1ZM472.166 236.8L472.589 237.706L472.166 236.8ZM512.766 240.9L512.015 241.56L512.023 241.57L512.766 240.9ZM520.166 341V342H521.166V341H520.166ZM497.766 341H496.766V342H497.766V341ZM492.266 252.2L491.65 252.988L491.656 252.993L491.662 252.997L492.266 252.2ZM464.566 257.7L465.243 258.436L465.253 258.426L464.566 257.7ZM457.966 265.2L457.146 264.627L456.966 264.885V265.2H457.966ZM457.966 341V342H458.966V341H457.966ZM436.566 341V235.4H434.566V341H436.566ZM435.566 236.4H454.866V234.4H435.566V236.4ZM453.873 235.523L455.573 249.223L457.558 248.977L455.858 235.277L453.873 235.523ZM457.341 249.732C461.651 244.442 466.732 240.439 472.589 237.706L471.743 235.894C465.599 238.761 460.281 242.958 455.79 248.468L457.341 249.732ZM472.589 237.706C478.462 234.965 484.485 233.6 490.666 233.6V231.6C484.18 231.6 477.869 233.035 471.743 235.894L472.589 237.706ZM490.666 233.6C500.347 233.6 507.397 236.31 512.015 241.56L513.517 240.24C508.401 234.424 500.717 231.6 490.666 231.6V233.6ZM512.023 241.57C516.74 246.797 519.166 254.227 519.166 264H521.166C521.166 253.907 518.658 245.936 513.508 240.23L512.023 241.57ZM519.166 264V341H521.166V264H519.166ZM520.166 340H497.766V342H520.166V340ZM498.766 341V275.1H496.766V341H498.766ZM498.766 275.1C498.766 268.936 498.398 263.931 497.647 260.107L495.684 260.493C496.4 264.136 496.766 268.997 496.766 275.1H498.766ZM497.647 260.107C496.884 256.225 495.329 253.266 492.869 251.403L491.662 252.997C493.603 254.467 494.98 256.909 495.684 260.493L497.647 260.107ZM492.881 251.412C490.496 249.549 487.035 248.7 482.666 248.7V250.7C486.83 250.7 489.768 251.518 491.65 252.988L492.881 251.412ZM482.666 248.7C479.116 248.7 475.736 249.467 472.534 250.998L473.397 252.802C476.329 251.4 479.415 250.7 482.666 250.7V248.7ZM472.534 250.998C469.371 252.511 466.485 254.504 463.878 256.974L465.253 258.426C467.713 256.096 470.427 254.223 473.397 252.802L472.534 250.998ZM463.888 256.964C461.305 259.344 459.057 261.898 457.146 264.627L458.785 265.773C460.608 263.169 462.76 260.723 465.243 258.436L463.888 256.964ZM456.966 265.2V341H458.966V265.2H456.966ZM457.966 340H435.566V342H457.966V340ZM597.188 235.4H598.188V234.4H597.188V235.4ZM597.188 324.6H596.188V325.6H597.188V324.6ZM625.888 324.6H626.888V323.6H625.888V324.6ZM625.888 341V342H626.888V341H625.888ZM543.188 341H542.188V342H543.188V341ZM543.188 324.6V323.6H542.188V324.6H543.188ZM574.788 324.6V325.6H575.788V324.6H574.788ZM574.788 251.8H575.788V250.8H574.788V251.8ZM544.188 251.8H543.188V252.8H544.188V251.8ZM544.188 235.4V234.4H543.188V235.4H544.188ZM592.188 187.7L591.48 188.407L591.489 188.416L592.188 187.7ZM592.188 207.8L591.48 207.093L591.472 207.102L592.188 207.8ZM571.087 207.8L570.38 208.507L571.087 207.8ZM571.087 187.7L570.389 186.984L571.087 187.7ZM596.188 235.4V324.6H598.188V235.4H596.188ZM597.188 325.6H625.888V323.6H597.188V325.6ZM624.888 324.6V341H626.888V324.6H624.888ZM625.888 340H543.188V342H625.888V340ZM544.188 341V324.6H542.188V341H544.188ZM543.188 325.6H574.788V323.6H543.188V325.6ZM575.788 324.6V251.8H573.788V324.6H575.788ZM574.788 250.8H544.188V252.8H574.788V250.8ZM545.188 251.8V235.4H543.188V251.8H545.188ZM544.188 236.4H597.188V234.4H544.188V236.4ZM581.587 184.7C585.77 184.7 589.033 185.959 591.48 188.407L592.895 186.993C590.009 184.107 586.205 182.7 581.587 182.7V184.7ZM591.489 188.416C594.02 190.884 595.288 193.955 595.288 197.7H597.288C597.288 193.445 595.822 189.849 592.886 186.984L591.489 188.416ZM595.288 197.7C595.288 201.445 594.019 204.554 591.48 207.093L592.895 208.507C595.823 205.579 597.288 201.955 597.288 197.7H595.288ZM591.472 207.102C589.022 209.612 585.763 210.9 581.587 210.9V212.9C586.212 212.9 590.019 211.454 592.903 208.498L591.472 207.102ZM581.587 210.9C577.556 210.9 574.32 209.618 571.795 207.093L570.38 208.507C573.322 211.448 577.086 212.9 581.587 212.9V210.9ZM571.795 207.093C569.256 204.554 567.987 201.445 567.987 197.7H565.987C565.987 201.955 567.452 205.579 570.38 208.507L571.795 207.093ZM567.987 197.7C567.987 193.955 569.255 190.884 571.786 188.416L570.389 186.984C567.453 189.849 565.987 193.445 565.987 197.7H567.987ZM571.786 188.416C574.31 185.953 577.548 184.7 581.587 184.7V182.7C577.093 182.7 573.332 184.113 570.389 186.984L571.786 188.416ZM643.409 341H642.409V342H643.409V341ZM643.409 235.4V234.4H642.409V235.4H643.409ZM662.709 235.4L663.702 235.277L663.593 234.4H662.709V235.4ZM664.409 249.1L663.417 249.223L663.705 251.547L665.185 249.732L664.409 249.1ZM680.009 236.8L680.432 237.706L680.009 236.8ZM720.609 240.9L719.858 241.56L719.867 241.57L720.609 240.9ZM728.009 341V342H729.009V341H728.009ZM705.609 341H704.609V342H705.609V341ZM700.109 252.2L699.494 252.988L699.5 252.993L699.505 252.997L700.109 252.2ZM672.409 257.7L673.087 258.436L673.097 258.426L672.409 257.7ZM665.809 265.2L664.99 264.627L664.809 264.885V265.2H665.809ZM665.809 341V342H666.809V341H665.809ZM644.409 341V235.4H642.409V341H644.409ZM643.409 236.4H662.709V234.4H643.409V236.4ZM661.717 235.523L663.417 249.223L665.402 248.977L663.702 235.277L661.717 235.523ZM665.185 249.732C669.494 244.442 674.576 240.439 680.432 237.706L679.586 235.894C673.443 238.761 668.124 242.958 663.634 248.468L665.185 249.732ZM680.432 237.706C686.306 234.965 692.329 233.6 698.509 233.6V231.6C692.023 231.6 685.713 233.035 679.586 235.894L680.432 237.706ZM698.509 233.6C708.191 233.6 715.24 236.31 719.858 241.56L721.36 240.24C716.245 234.424 708.561 231.6 698.509 231.6V233.6ZM719.867 241.57C724.584 246.797 727.009 254.227 727.009 264H729.009C729.009 253.907 726.501 245.936 721.352 240.23L719.867 241.57ZM727.009 264V341H729.009V264H727.009ZM728.009 340H705.609V342H728.009V340ZM706.609 341V275.1H704.609V341H706.609ZM706.609 275.1C706.609 268.936 706.242 263.931 705.491 260.107L703.528 260.493C704.244 264.136 704.609 268.997 704.609 275.1H706.609ZM705.491 260.107C704.728 256.225 703.172 253.266 700.713 251.403L699.505 252.997C701.446 254.467 702.824 256.909 703.528 260.493L705.491 260.107ZM700.725 251.412C698.34 249.549 694.879 248.7 690.509 248.7V250.7C694.673 250.7 697.612 251.518 699.494 252.988L700.725 251.412ZM690.509 248.7C686.96 248.7 683.579 249.467 680.378 250.998L681.241 252.802C684.173 251.4 687.259 250.7 690.509 250.7V248.7ZM680.378 250.998C677.215 252.511 674.329 254.504 671.722 256.974L673.097 258.426C675.557 256.096 678.271 254.223 681.241 252.802L680.378 250.998ZM671.732 256.964C669.149 259.344 666.9 261.898 664.99 264.627L666.629 265.773C668.452 263.169 670.603 260.723 673.087 258.436L671.732 256.964ZM664.809 265.2V341H666.809V265.2H664.809ZM665.809 340H643.409V342H665.809V340ZM836.231 222L837.183 221.693L836.832 220.606L835.801 221.097L836.231 222ZM842.231 240.6L842.547 241.549L843.487 241.236L843.183 240.293L842.231 240.6ZM828.331 243.4L828.24 242.404L828.238 242.404L828.331 243.4ZM811.531 244.1V243.1L811.127 245.015L811.531 244.1ZM825.831 254.9L825.023 255.488L825.027 255.494L825.831 254.9ZM825.631 289.3L824.78 288.775L825.631 289.3ZM811.331 302L810.888 301.104L811.331 302ZM781.031 306.2L780.911 307.193L780.914 307.193L781.031 306.2ZM774.531 304.9L774.802 303.937L774.346 303.809L773.958 304.081L774.531 304.9ZM771.131 308.7L770.267 308.196L770.261 308.208L771.131 308.7ZM772.431 319.2L771.753 319.935L771.768 319.948L771.783 319.961L772.431 319.2ZM821.331 325.4L820.918 326.311L820.931 326.316L821.331 325.4ZM834.931 335.9L834.124 336.49L834.129 336.497L834.134 336.504L834.931 335.9ZM826.331 375.4L825.792 374.558L826.331 375.4ZM758.731 380.4L759.069 379.459L758.731 380.4ZM744.231 369.4L743.365 369.899L744.231 369.4ZM740.031 351.5V350.5H739.031V351.5H740.031ZM760.131 351.5H761.131V350.5H760.131V351.5ZM762.231 360.6L761.367 361.104L761.373 361.113L761.378 361.121L762.231 360.6ZM770.331 366L770.623 365.044L770.331 366ZM804.931 365.9L804.668 364.935L804.659 364.938L804.651 364.94L804.931 365.9ZM814.431 360.6L813.681 359.938L813.671 359.95L813.661 359.962L814.431 360.6ZM811.831 342.5L811.301 343.348L811.831 342.5ZM756.731 332.9L756.069 333.649L756.074 333.654L756.731 332.9ZM752.831 308.3L751.981 307.773L751.977 307.779L751.974 307.786L752.831 308.3ZM761.631 299.6L762.176 300.439L763.607 299.51L762.097 298.715L761.631 299.6ZM747.731 287.5L746.873 288.013L746.877 288.02L746.881 288.027L747.731 287.5ZM749.031 250.5L748.199 249.945L749.031 250.5ZM764.531 237.4L764.106 236.495L764.102 236.497L764.531 237.4ZM808.731 231.4L808.882 232.389L808.894 232.387L808.731 231.4ZM823.531 227.5L823.167 226.569L823.162 226.57L823.531 227.5ZM771.631 254.2L772.375 254.869L772.38 254.863L771.631 254.2ZM771.731 286L770.989 286.67L770.994 286.676L771 286.682L771.731 286ZM803.131 286.2L802.393 285.525L802.387 285.532L803.131 286.2ZM803.231 253.5L803.952 252.806L803.231 253.5ZM835.28 222.307L841.28 240.907L843.183 240.293L837.183 221.693L835.28 222.307ZM841.915 239.651C837.798 241.024 833.241 241.944 828.24 242.404L828.423 244.396C833.555 243.923 838.265 242.976 842.547 241.549L841.915 239.651ZM828.238 242.404C823.275 242.868 817.707 243.1 811.531 243.1V245.1C817.755 245.1 823.387 244.866 828.424 244.396L828.238 242.404ZM811.127 245.015C817.342 247.762 821.951 251.265 825.023 255.488L826.64 254.312C823.312 249.735 818.387 246.038 811.936 243.185L811.127 245.015ZM825.027 255.494C828.079 259.627 829.631 264.742 829.631 270.9H831.631C831.631 264.392 829.984 258.84 826.636 254.306L825.027 255.494ZM829.631 270.9C829.631 277.597 828.008 283.546 824.78 288.775L826.482 289.825C829.921 284.254 831.631 277.936 831.631 270.9H829.631ZM824.78 288.775C821.554 294.001 816.936 298.112 810.888 301.104L811.775 302.896C818.127 299.754 823.042 295.399 826.482 289.825L824.78 288.775ZM810.888 301.104C804.856 304.087 797.582 305.6 789.031 305.6V307.6C797.814 307.6 805.406 306.046 811.775 302.896L810.888 301.104ZM789.031 305.6C785.991 305.6 783.365 305.468 781.148 305.207L780.914 307.193C783.23 307.466 785.938 307.6 789.031 307.6V305.6ZM781.152 305.207C779.002 304.947 776.886 304.523 774.802 303.937L774.26 305.863C776.443 306.477 778.66 306.92 780.911 307.193L781.152 305.207ZM773.958 304.081C772.491 305.108 771.264 306.489 770.267 308.196L771.995 309.204C772.866 307.711 773.905 306.559 775.105 305.719L773.958 304.081ZM770.261 308.208C769.311 309.889 768.831 311.691 768.831 313.6H770.831C770.831 312.042 771.219 310.578 772.002 309.192L770.261 308.208ZM768.831 313.6C768.831 316.044 769.839 318.168 771.753 319.935L773.11 318.465C771.557 317.032 770.831 315.423 770.831 313.6H768.831ZM771.783 319.961C772.857 320.877 774.369 321.501 776.219 321.902C778.079 322.306 780.356 322.5 783.031 322.5V320.5C780.44 320.5 778.317 320.311 776.643 319.948C774.96 319.582 773.805 319.057 773.08 318.439L771.783 319.961ZM783.031 322.5H801.431V320.5H783.031V322.5ZM801.431 322.5C808.85 322.5 815.338 323.78 820.918 326.311L821.744 324.489C815.858 321.82 809.079 320.5 801.431 320.5V322.5ZM820.931 326.316C826.593 328.789 830.976 332.186 834.124 336.49L835.738 335.31C832.353 330.681 827.67 327.077 821.732 324.484L820.931 326.316ZM834.134 336.504C837.334 340.727 838.931 345.515 838.931 350.9H840.931C840.931 345.085 839.195 339.873 835.728 335.296L834.134 336.504ZM838.931 350.9C838.931 361.083 834.579 368.937 825.792 374.558L826.87 376.242C836.216 370.263 840.931 361.783 840.931 350.9H838.931ZM825.792 374.558C816.955 380.211 804.109 383.1 787.131 383.1V385.1C804.287 385.1 817.574 382.189 826.87 376.242L825.792 374.558ZM787.131 383.1C775.115 383.1 765.78 381.869 759.069 379.459L758.393 381.341C765.416 383.864 775.015 385.1 787.131 385.1V383.1ZM759.069 379.459C752.358 377.048 747.748 373.508 745.098 368.901L743.365 369.899C746.314 375.026 751.371 378.819 758.393 381.341L759.069 379.459ZM745.098 368.901C742.405 364.221 741.031 358.436 741.031 351.5H739.031C739.031 358.697 740.457 364.846 743.365 369.899L745.098 368.901ZM740.031 352.5H760.131V350.5H740.031V352.5ZM759.131 351.5C759.131 355.289 759.854 358.51 761.367 361.104L763.095 360.096C761.808 357.89 761.131 355.045 761.131 351.5H759.131ZM761.378 361.121C763.02 363.809 765.978 365.717 770.039 366.956L770.623 365.044C766.818 363.883 764.376 362.191 763.085 360.079L761.378 361.121ZM770.039 366.956C774.114 368.2 779.898 368.8 787.331 368.8V366.8C779.965 366.8 774.415 366.2 770.623 365.044L770.039 366.956ZM787.331 368.8C794.774 368.8 800.748 368.165 805.212 366.86L804.651 364.94C800.448 366.169 794.689 366.8 787.331 366.8V368.8ZM805.194 366.865C809.698 365.636 813.086 363.791 815.201 361.238L813.661 359.962C811.91 362.075 808.964 363.764 804.668 364.935L805.194 366.865ZM815.181 361.262C817.352 358.801 818.431 355.828 818.431 352.4H816.431C816.431 355.372 815.51 357.866 813.681 359.938L815.181 361.262ZM818.431 352.4C818.431 347.775 816.376 344.161 812.361 341.652L811.301 343.348C814.754 345.506 816.431 348.491 816.431 352.4H818.431ZM812.361 341.652C808.415 339.186 803.21 338 796.831 338V340C802.986 340 807.781 341.148 811.301 343.348L812.361 341.652ZM796.831 338H778.731V340H796.831V338ZM778.731 338C768.833 338 761.79 335.982 757.388 332.146L756.074 333.654C761.006 337.952 768.629 340 778.731 340V338ZM757.394 332.151C752.976 328.245 750.831 323.773 750.831 318.7H748.831C748.831 324.427 751.287 329.422 756.069 333.649L757.394 332.151ZM750.831 318.7C750.831 315.296 751.774 312.005 753.689 308.814L751.974 307.786C749.888 311.261 748.831 314.904 748.831 318.7H750.831ZM753.681 308.827C755.659 305.637 758.48 302.838 762.176 300.439L761.087 298.761C757.182 301.296 754.137 304.297 751.981 307.773L753.681 308.827ZM762.097 298.715C755.877 295.442 751.398 291.518 748.581 286.973L746.881 288.027C749.932 292.949 754.719 297.092 761.166 300.485L762.097 298.715ZM748.59 286.987C745.834 282.373 744.431 276.758 744.431 270.1H742.431C742.431 277.042 743.895 283.027 746.873 288.013L748.59 286.987ZM744.431 270.1C744.431 262.808 746.251 256.473 749.863 251.055L748.199 249.945C744.345 255.727 742.431 262.458 742.431 270.1H744.431ZM749.863 251.055C753.488 245.618 758.509 241.366 764.96 238.303L764.102 236.497C757.353 239.701 752.041 244.182 748.199 249.945L749.863 251.055ZM764.957 238.305C771.469 235.244 778.986 233.7 787.531 233.7V231.7C778.743 231.7 770.927 233.289 764.106 236.495L764.957 238.305ZM787.531 233.7C796.027 233.7 803.148 233.265 808.882 232.388L808.58 230.411C802.981 231.268 795.969 231.7 787.531 231.7V233.7ZM808.894 232.387C814.613 231.445 819.619 230.129 823.9 228.429L823.162 226.57C819.044 228.205 814.183 229.489 808.569 230.413L808.894 232.387ZM823.895 228.431C828.185 226.756 832.44 224.913 836.661 222.903L835.801 221.097C831.623 223.087 827.411 224.911 823.167 226.569L823.895 228.431ZM787.731 247.1C780.407 247.1 774.727 249.194 770.883 253.537L772.38 254.863C775.735 251.073 780.789 249.1 787.731 249.1V247.1ZM770.888 253.531C767.091 257.75 765.231 263.239 765.231 269.9H767.231C767.231 263.628 768.972 258.65 772.375 254.869L770.888 253.531ZM765.231 269.9C765.231 276.758 767.122 282.381 770.989 286.67L772.474 285.33C769.007 281.485 767.231 276.376 767.231 269.9H765.231ZM771 286.682C774.976 290.942 780.709 293 788.031 293V291C781.086 291 775.953 289.058 772.462 285.318L771 286.682ZM788.031 293C794.833 293 800.171 291 803.876 286.868L802.387 285.532C799.158 289.133 794.429 291 788.031 291V293ZM803.869 286.875C807.624 282.766 809.431 276.992 809.431 269.7H807.431C807.431 276.675 805.705 281.901 802.393 285.525L803.869 286.875ZM809.431 269.7C809.431 262.355 807.664 256.661 803.952 252.806L802.511 254.194C805.732 257.539 807.431 262.645 807.431 269.7H809.431ZM803.952 252.806C800.234 248.946 794.765 247.1 787.731 247.1V249.1C794.431 249.1 799.295 250.854 802.511 254.194L803.952 252.806Z" fill="#AC04EC" mask="url(#path-1-outside-1_1_25)"/>
<g filter="url(#filter2_b_1_25)">
<path d="M307.369 3.76706C358.886 -3.85557 419.061 -2.37707 458.372 31.7612C497.797 65.999 488.356 129.083 507.56 177.622C523.481 217.857 559.1 249.942 561.803 293.125C564.56 337.192 537.727 375.813 522.558 417.28C504.246 467.32 508.229 534.314 463.137 562.743C418.373 590.966 358.236 567.556 307.365 552.954C264.986 540.795 235.06 506.306 195.907 486.041C154.408 464.561 102.892 463.239 69.9806 430.082C33.6985 393.529 7.75744 344.5 4.41658 293.123C1.00713 240.691 18.6887 186.565 51.472 145.486C82.7111 106.342 136.323 97.1945 180.145 72.9205C223.103 49.1368 258.789 10.9564 307.369 3.76706Z" fill="#AC04EC"/>
</g>
<path d="M197.1 235.4V318.8C197.1 331.933 194.367 342.833 188.9 351.5C183.5 360.167 175.567 367.067 165.1 372.2C154.633 377.4 141.867 381.367 126.8 384.1L123.2 366.9C133.667 364.9 142.767 362.133 150.5 358.6C158.233 355.067 164.2 350.233 168.4 344.1C172.6 337.967 174.7 330.033 174.7 320.3V251.8H133V235.4H197.1ZM179.6 183.7C183.933 183.7 187.467 185.033 190.2 187.7C192.933 190.367 194.3 193.7 194.3 197.7C194.3 201.7 192.933 205.067 190.2 207.8C187.467 210.533 183.933 211.9 179.6 211.9C175.267 211.9 171.733 210.533 169 207.8C166.333 205.067 165 201.7 165 197.7C165 193.7 166.333 190.367 169 187.7C171.733 185.033 175.267 183.7 179.6 183.7ZM266.122 326.5C273.122 326.5 278.689 325.267 282.822 322.8C286.955 320.267 289.022 316.8 289.022 312.4C289.022 309.533 288.422 307.1 287.222 305.1C286.022 303.033 283.622 301.167 280.022 299.5C276.422 297.767 270.955 295.967 263.622 294.1C256.689 292.3 250.589 290.167 245.322 287.7C240.122 285.233 236.089 282.033 233.222 278.1C230.355 274.167 228.922 269.1 228.922 262.9C228.922 256.833 230.622 251.533 234.022 247C237.422 242.467 242.289 238.933 248.622 236.4C255.022 233.867 262.522 232.6 271.122 232.6C279.989 232.6 287.722 233.767 294.322 236.1C300.922 238.433 306.555 241.333 311.222 244.8L301.822 258.9C297.689 256.167 293.155 253.933 288.222 252.2C283.355 250.467 277.855 249.6 271.722 249.6C264.589 249.6 259.455 250.667 256.322 252.8C253.255 254.933 251.722 257.767 251.722 261.3C251.722 263.9 252.489 266.1 254.022 267.9C255.622 269.633 258.355 271.267 262.222 272.8C266.089 274.267 271.555 276 278.622 278C285.489 279.867 291.455 282.067 296.522 284.6C301.655 287.133 305.622 290.5 308.422 294.7C311.289 298.833 312.722 304.233 312.722 310.9C312.722 318.5 310.522 324.733 306.122 329.6C301.789 334.4 296.055 337.967 288.922 340.3C281.855 342.567 274.255 343.7 266.122 343.7C256.322 343.7 247.855 342.3 240.722 339.5C233.589 336.633 227.589 333.067 222.722 328.8L234.622 315.2C238.755 318.533 243.489 321.267 248.822 323.4C254.155 325.467 259.922 326.5 266.122 326.5ZM373.944 232.6C384.277 232.6 392.977 234.9 400.044 239.5C407.11 244.1 412.444 250.533 416.044 258.8C419.71 267.067 421.544 276.8 421.544 288C421.544 299.133 419.677 308.9 415.944 317.3C412.277 325.633 406.877 332.133 399.744 336.8C392.677 341.4 384.044 343.7 373.844 343.7C363.644 343.7 354.977 341.467 347.844 337C340.777 332.467 335.377 326.033 331.644 317.7C327.977 309.367 326.144 299.533 326.144 288.2C326.144 277.2 327.977 267.533 331.644 259.2C335.377 250.867 340.81 244.367 347.944 239.7C355.077 234.967 363.744 232.6 373.944 232.6ZM373.944 250C365.877 250 359.81 253.1 355.744 259.3C351.677 265.433 349.644 275.067 349.644 288.2C349.644 301.267 351.644 310.9 355.644 317.1C359.71 323.3 365.777 326.4 373.844 326.4C381.91 326.4 387.944 323.3 391.944 317.1C396.01 310.9 398.044 301.2 398.044 288C398.044 275 396.044 265.433 392.044 259.3C388.044 253.1 382.01 250 373.944 250ZM435.566 341V235.4H454.866L456.566 249.1C460.966 243.7 466.166 239.6 472.166 236.8C478.166 234 484.332 232.6 490.666 232.6C500.532 232.6 507.899 235.367 512.766 240.9C517.699 246.367 520.166 254.067 520.166 264V341H497.766V275.1C497.766 268.967 497.399 264.033 496.666 260.3C495.932 256.567 494.466 253.867 492.266 252.2C490.132 250.533 486.932 249.7 482.666 249.7C479.266 249.7 476.032 250.433 472.966 251.9C469.899 253.367 467.099 255.3 464.566 257.7C462.032 260.033 459.832 262.533 457.966 265.2V341H435.566Z" fill="white"/>
</g>
</g>
<defs>
<filter id="filter0_d_1_25" x="0" y="0" width="867" height="584" filterUnits="userSpaceOnUse" color-interpolation-filters="sRGB">
<feFlood flood-opacity="0" result="BackgroundImageFix"/>
<feColorMatrix in="SourceAlpha" type="matrix" values="0 0 0 0 0 0 0 0 0 0 0 0 0 0 0 0 0 0 127 0" result="hardAlpha"/>
<feOffset dy="4"/>
<feGaussianBlur stdDeviation="2"/>
<feComposite in2="hardAlpha" operator="out"/>
<feColorMatrix type="matrix" values="0 0 0 0 0 0 0 0 0 0 0 0 0 0 0 0 0 0 0.25 0"/>
<feBlend mode="normal" in2="BackgroundImageFix" result="effect1_dropShadow_1_25"/>
<feBlend mode="normal" in="SourceGraphic" in2="effect1_dropShadow_1_25" result="shape"/>
</filter>
<filter id="filter1_d_1_25" x="0" y="0" width="846.231" height="584" filterUnits="userSpaceOnUse" color-interpolation-filters="sRGB">
<feFlood flood-opacity="0" result="BackgroundImageFix"/>
<feColorMatrix in="SourceAlpha" type="matrix" values="0 0 0 0 0 0 0 0 0 0 0 0 0 0 0 0 0 0 127 0" result="hardAlpha"/>
<feOffset dy="4"/>
<feGaussianBlur stdDeviation="2"/>
<feComposite in2="hardAlpha" operator="out"/>
<feColorMatrix type="matrix" values="0 0 0 0 0 0 0 0 0 0 0 0 0 0 0 0 0 0 0.25 0"/>
<feBlend mode="normal" in2="BackgroundImageFix" result="effect1_dropShadow_1_25"/>
<feBlend mode="normal" in="SourceGraphic" in2="effect1_dropShadow_1_25" result="shape"/>
</filter>
<filter id="filter2_b_1_25" x="-19.8" y="-23.8" width="605.6" height="623.6" filterUnits="userSpaceOnUse" color-interpolation-filters="sRGB">
<feFlood flood-opacity="0" result="BackgroundImageFix"/>
<feGaussianBlur in="BackgroundImageFix" stdDeviation="11.9"/>
<feComposite in2="SourceAlpha" operator="in" result="effect1_backgroundBlur_1_25"/>
<feBlend mode="normal" in="SourceGraphic" in2="effect1_backgroundBlur_1_25" result="shape"/>
</filter>
<clipPath id="clip0_1_25">
<rect width="859" height="576" fill="white" transform="translate(4)"/>
</clipPath>
</defs>
</svg>
