<svg width="576" height="576" viewBox="0 0 576 576" fill="none" xmlns="http://www.w3.org/2000/svg">
<g clip-path="url(#clip0_1_36)">
<rect width="576" height="576" fill="white"/>
<g filter="url(#filter0_b_1_36)">
<path fill-rule="evenodd" clip-rule="evenodd" d="M463.332 31.7612C424.021 -2.37707 363.846 -3.85557 312.329 3.76706C279.66 8.60169 252.822 27.4512 225.683 46.5128C212.465 55.7966 199.175 65.1308 185.105 72.9205C170.72 80.8883 155.281 87.2263 139.925 93.5304C108.498 106.432 77.4171 119.191 56.432 145.486C23.6487 186.565 5.96714 240.691 9.37659 293.123C12.7174 344.5 38.6585 393.529 74.9406 430.082C95.2699 450.563 122.698 458.897 150.478 467.339C154.022 468.415 157.572 469.494 161.114 470.6H164.06V397.8H133.46V381.4H186.46V470.6H215.16V487H202.694C217.641 494.96 231.274 504.94 244.826 514.859C265.964 530.332 286.904 545.66 312.325 552.954C318.102 554.612 323.999 556.384 329.979 558.181C376.657 572.207 428.417 587.761 468.097 562.743C499.146 543.168 506.927 505.306 514.741 467.286C518.275 450.091 521.815 432.864 527.518 417.28C531.884 405.346 537.216 393.647 542.53 381.986C555.682 353.131 568.726 324.509 566.763 293.125C565.097 266.507 550.924 244.105 536.568 221.413C527.633 207.291 518.627 193.056 512.52 177.622C505.477 159.822 502.287 140.066 499.127 120.494C493.669 86.6949 488.3 53.4435 463.332 31.7612ZM181.46 333.7C178.793 331.033 175.26 329.7 170.86 329.7C166.593 329.7 163.093 331.033 160.36 333.7C157.627 336.367 156.26 339.7 156.26 343.7C156.26 347.7 157.627 351.067 160.36 353.8C163.093 356.533 166.593 357.9 170.86 357.9C175.26 357.9 178.793 356.533 181.46 353.8C184.193 351.067 185.56 347.7 185.56 343.7C185.56 339.7 184.193 336.367 181.46 333.7ZM232.682 381.4V487H255.082V411.2C256.949 408.533 259.149 406.033 261.682 403.7C264.215 401.3 267.015 399.367 270.082 397.9C273.149 396.433 276.382 395.7 279.782 395.7C284.049 395.7 287.249 396.533 289.382 398.2C291.582 399.867 293.049 402.567 293.782 406.3C294.515 410.033 294.882 414.967 294.882 421.1V487H317.282V410C317.282 400.067 314.815 392.367 309.882 386.9C305.015 381.367 297.649 378.6 287.782 378.6C281.449 378.6 275.282 380 269.282 382.8C263.282 385.6 258.082 389.7 253.682 395.1L251.982 381.4H232.682ZM431.504 386.6L425.504 368C421.304 370 417.07 371.833 412.804 373.5C408.604 375.167 403.67 376.467 398.004 377.4C392.337 378.267 385.27 378.7 376.804 378.7C368.137 378.7 360.47 380.267 353.804 383.4C347.204 386.533 342.037 390.9 338.304 396.5C334.57 402.1 332.704 408.633 332.704 416.1C332.704 422.9 334.137 428.7 337.004 433.5C339.937 438.233 344.57 442.267 350.904 445.6C347.104 448.067 344.17 450.967 342.104 454.3C340.104 457.633 339.104 461.1 339.104 464.7C339.104 470.1 341.404 474.833 346.004 478.9C350.67 482.967 358.004 485 368.004 485H386.104C392.37 485 397.37 486.167 401.104 488.5C404.837 490.833 406.704 494.133 406.704 498.4C406.704 501.6 405.704 504.333 403.704 506.6C401.77 508.933 398.604 510.7 394.204 511.9C389.87 513.167 384.004 513.8 376.604 513.8C369.204 513.8 363.537 513.2 359.604 512C355.67 510.8 352.97 509 351.504 506.6C350.104 504.2 349.404 501.167 349.404 497.5H329.304C329.304 504.567 330.704 510.533 333.504 515.4C336.304 520.267 341.137 523.933 348.004 526.4C354.87 528.867 364.337 530.1 376.404 530.1C393.47 530.1 406.537 527.2 415.604 521.4C424.67 515.6 429.204 507.433 429.204 496.9C429.204 491.3 427.537 486.3 424.204 481.9C420.937 477.433 416.404 473.933 410.604 471.4C404.87 468.8 398.237 467.5 390.704 467.5H372.304C367.037 467.5 363.504 466.733 361.704 465.2C359.97 463.6 359.104 461.733 359.104 459.6C359.104 457.867 359.537 456.233 360.404 454.7C361.337 453.1 362.47 451.833 363.804 450.9C365.937 451.5 368.104 451.933 370.304 452.2C372.57 452.467 375.237 452.6 378.304 452.6C386.97 452.6 394.404 451.067 400.604 448C406.804 444.933 411.57 440.7 414.904 435.3C418.237 429.9 419.904 423.767 419.904 416.9C419.904 410.567 418.304 405.233 415.104 400.9C411.904 396.5 407.137 392.9 400.804 390.1C407.004 390.1 412.604 389.867 417.604 389.4C422.67 388.933 427.304 388 431.504 386.6ZM360.904 400.2C364.504 396.133 369.87 394.1 377.004 394.1C383.87 394.1 389.037 395.9 392.504 399.5C395.97 403.1 397.704 408.5 397.704 415.7C397.704 422.833 395.937 428.333 392.404 432.2C388.937 436.067 383.904 438 377.304 438C370.17 438 364.737 436 361.004 432C357.337 427.933 355.504 422.567 355.504 415.9C355.504 409.433 357.304 404.2 360.904 400.2Z" fill="#AC04EC"/>
</g>
<mask id="path-2-outside-1_1_36" maskUnits="userSpaceOnUse" x="126.96" y="143" width="400" height="204" fill="black">
<rect fill="white" x="126.96" y="143" width="400" height="204"/>
<path d="M202.06 196.4V279.8C202.06 292.933 199.327 303.833 193.86 312.5C188.46 321.167 180.527 328.067 170.06 333.2C159.593 338.4 146.827 342.367 131.76 345.1L128.16 327.9C138.627 325.9 147.727 323.133 155.46 319.6C163.193 316.067 169.16 311.233 173.36 305.1C177.56 298.967 179.66 291.033 179.66 281.3V212.8H137.96V196.4H202.06ZM184.56 144.7C188.893 144.7 192.427 146.033 195.16 148.7C197.893 151.367 199.26 154.7 199.26 158.7C199.26 162.7 197.893 166.067 195.16 168.8C192.427 171.533 188.893 172.9 184.56 172.9C180.227 172.9 176.693 171.533 173.96 168.8C171.293 166.067 169.96 162.7 169.96 158.7C169.96 154.7 171.293 151.367 173.96 148.7C176.693 146.033 180.227 144.7 184.56 144.7ZM271.082 287.5C278.082 287.5 283.649 286.267 287.782 283.8C291.915 281.267 293.982 277.8 293.982 273.4C293.982 270.533 293.382 268.1 292.182 266.1C290.982 264.033 288.582 262.167 284.982 260.5C281.382 258.767 275.915 256.967 268.582 255.1C261.649 253.3 255.549 251.167 250.282 248.7C245.082 246.233 241.049 243.033 238.182 239.1C235.315 235.167 233.882 230.1 233.882 223.9C233.882 217.833 235.582 212.533 238.982 208C242.382 203.467 247.249 199.933 253.582 197.4C259.982 194.867 267.482 193.6 276.082 193.6C284.949 193.6 292.682 194.767 299.282 197.1C305.882 199.433 311.515 202.333 316.182 205.8L306.782 219.9C302.649 217.167 298.115 214.933 293.182 213.2C288.315 211.467 282.815 210.6 276.682 210.6C269.549 210.6 264.415 211.667 261.282 213.8C258.215 215.933 256.682 218.767 256.682 222.3C256.682 224.9 257.449 227.1 258.982 228.9C260.582 230.633 263.315 232.267 267.182 233.8C271.049 235.267 276.515 237 283.582 239C290.449 240.867 296.415 243.067 301.482 245.6C306.615 248.133 310.582 251.5 313.382 255.7C316.249 259.833 317.682 265.233 317.682 271.9C317.682 279.5 315.482 285.733 311.082 290.6C306.749 295.4 301.015 298.967 293.882 301.3C286.815 303.567 279.215 304.7 271.082 304.7C261.282 304.7 252.815 303.3 245.682 300.5C238.549 297.633 232.549 294.067 227.682 289.8L239.582 276.2C243.715 279.533 248.449 282.267 253.782 284.4C259.115 286.467 264.882 287.5 271.082 287.5ZM378.904 193.6C389.237 193.6 397.937 195.9 405.004 200.5C412.07 205.1 417.404 211.533 421.004 219.8C424.67 228.067 426.504 237.8 426.504 249C426.504 260.133 424.637 269.9 420.904 278.3C417.237 286.633 411.837 293.133 404.704 297.8C397.637 302.4 389.004 304.7 378.804 304.7C368.604 304.7 359.937 302.467 352.804 298C345.737 293.467 340.337 287.033 336.604 278.7C332.937 270.367 331.104 260.533 331.104 249.2C331.104 238.2 332.937 228.533 336.604 220.2C340.337 211.867 345.77 205.367 352.904 200.7C360.037 195.967 368.704 193.6 378.904 193.6ZM378.904 211C370.837 211 364.77 214.1 360.704 220.3C356.637 226.433 354.604 236.067 354.604 249.2C354.604 262.267 356.604 271.9 360.604 278.1C364.67 284.3 370.737 287.4 378.804 287.4C386.87 287.4 392.904 284.3 396.904 278.1C400.97 271.9 403.004 262.2 403.004 249C403.004 236 401.004 226.433 397.004 220.3C393.004 214.1 386.97 211 378.904 211ZM440.526 302V196.4H459.826L461.526 210.1C465.926 204.7 471.126 200.6 477.126 197.8C483.126 195 489.292 193.6 495.626 193.6C505.492 193.6 512.859 196.367 517.726 201.9C522.659 207.367 525.126 215.067 525.126 225V302H502.726V236.1C502.726 229.967 502.359 225.033 501.626 221.3C500.892 217.567 499.426 214.867 497.226 213.2C495.092 211.533 491.892 210.7 487.626 210.7C484.226 210.7 480.992 211.433 477.926 212.9C474.859 214.367 472.059 216.3 469.526 218.7C466.992 221.033 464.792 223.533 462.926 226.2V302H440.526Z"/>
</mask>
<path d="M202.06 196.4V279.8C202.06 292.933 199.327 303.833 193.86 312.5C188.46 321.167 180.527 328.067 170.06 333.2C159.593 338.4 146.827 342.367 131.76 345.1L128.16 327.9C138.627 325.9 147.727 323.133 155.46 319.6C163.193 316.067 169.16 311.233 173.36 305.1C177.56 298.967 179.66 291.033 179.66 281.3V212.8H137.96V196.4H202.06ZM184.56 144.7C188.893 144.7 192.427 146.033 195.16 148.7C197.893 151.367 199.26 154.7 199.26 158.7C199.26 162.7 197.893 166.067 195.16 168.8C192.427 171.533 188.893 172.9 184.56 172.9C180.227 172.9 176.693 171.533 173.96 168.8C171.293 166.067 169.96 162.7 169.96 158.7C169.96 154.7 171.293 151.367 173.96 148.7C176.693 146.033 180.227 144.7 184.56 144.7ZM271.082 287.5C278.082 287.5 283.649 286.267 287.782 283.8C291.915 281.267 293.982 277.8 293.982 273.4C293.982 270.533 293.382 268.1 292.182 266.1C290.982 264.033 288.582 262.167 284.982 260.5C281.382 258.767 275.915 256.967 268.582 255.1C261.649 253.3 255.549 251.167 250.282 248.7C245.082 246.233 241.049 243.033 238.182 239.1C235.315 235.167 233.882 230.1 233.882 223.9C233.882 217.833 235.582 212.533 238.982 208C242.382 203.467 247.249 199.933 253.582 197.4C259.982 194.867 267.482 193.6 276.082 193.6C284.949 193.6 292.682 194.767 299.282 197.1C305.882 199.433 311.515 202.333 316.182 205.8L306.782 219.9C302.649 217.167 298.115 214.933 293.182 213.2C288.315 211.467 282.815 210.6 276.682 210.6C269.549 210.6 264.415 211.667 261.282 213.8C258.215 215.933 256.682 218.767 256.682 222.3C256.682 224.9 257.449 227.1 258.982 228.9C260.582 230.633 263.315 232.267 267.182 233.8C271.049 235.267 276.515 237 283.582 239C290.449 240.867 296.415 243.067 301.482 245.6C306.615 248.133 310.582 251.5 313.382 255.7C316.249 259.833 317.682 265.233 317.682 271.9C317.682 279.5 315.482 285.733 311.082 290.6C306.749 295.4 301.015 298.967 293.882 301.3C286.815 303.567 279.215 304.7 271.082 304.7C261.282 304.7 252.815 303.3 245.682 300.5C238.549 297.633 232.549 294.067 227.682 289.8L239.582 276.2C243.715 279.533 248.449 282.267 253.782 284.4C259.115 286.467 264.882 287.5 271.082 287.5ZM378.904 193.6C389.237 193.6 397.937 195.9 405.004 200.5C412.07 205.1 417.404 211.533 421.004 219.8C424.67 228.067 426.504 237.8 426.504 249C426.504 260.133 424.637 269.9 420.904 278.3C417.237 286.633 411.837 293.133 404.704 297.8C397.637 302.4 389.004 304.7 378.804 304.7C368.604 304.7 359.937 302.467 352.804 298C345.737 293.467 340.337 287.033 336.604 278.7C332.937 270.367 331.104 260.533 331.104 249.2C331.104 238.2 332.937 228.533 336.604 220.2C340.337 211.867 345.77 205.367 352.904 200.7C360.037 195.967 368.704 193.6 378.904 193.6ZM378.904 211C370.837 211 364.77 214.1 360.704 220.3C356.637 226.433 354.604 236.067 354.604 249.2C354.604 262.267 356.604 271.9 360.604 278.1C364.67 284.3 370.737 287.4 378.804 287.4C386.87 287.4 392.904 284.3 396.904 278.1C400.97 271.9 403.004 262.2 403.004 249C403.004 236 401.004 226.433 397.004 220.3C393.004 214.1 386.97 211 378.904 211ZM440.526 302V196.4H459.826L461.526 210.1C465.926 204.7 471.126 200.6 477.126 197.8C483.126 195 489.292 193.6 495.626 193.6C505.492 193.6 512.859 196.367 517.726 201.9C522.659 207.367 525.126 215.067 525.126 225V302H502.726V236.1C502.726 229.967 502.359 225.033 501.626 221.3C500.892 217.567 499.426 214.867 497.226 213.2C495.092 211.533 491.892 210.7 487.626 210.7C484.226 210.7 480.992 211.433 477.926 212.9C474.859 214.367 472.059 216.3 469.526 218.7C466.992 221.033 464.792 223.533 462.926 226.2V302H440.526Z" fill="white"/>
<path d="M202.06 196.4H203.06V195.4H202.06V196.4ZM193.86 312.5L193.014 311.966L193.011 311.971L193.86 312.5ZM170.06 333.2L169.62 332.302L169.615 332.304L170.06 333.2ZM131.76 345.1L130.781 345.305L130.981 346.258L131.938 346.084L131.76 345.1ZM128.16 327.9L127.972 326.918L126.973 327.109L127.181 328.105L128.16 327.9ZM155.46 319.6L155.044 318.69L155.044 318.69L155.46 319.6ZM173.36 305.1L172.535 304.535L172.535 304.535L173.36 305.1ZM179.66 212.8H180.66V211.8H179.66V212.8ZM137.96 212.8H136.96V213.8H137.96V212.8ZM137.96 196.4V195.4H136.96V196.4H137.96ZM195.16 148.7L195.858 147.984L195.858 147.984L195.16 148.7ZM195.16 168.8L195.867 169.507L195.867 169.507L195.16 168.8ZM173.96 168.8L173.244 169.498L173.253 169.507L173.96 168.8ZM173.96 148.7L173.262 147.984L173.253 147.993L173.96 148.7ZM201.06 196.4V279.8H203.06V196.4H201.06ZM201.06 279.8C201.06 292.797 198.355 303.499 193.014 311.966L194.706 313.033C200.298 304.168 203.06 293.07 203.06 279.8H201.06ZM193.011 311.971C187.724 320.458 179.943 327.239 169.62 332.302L170.5 334.098C181.111 328.894 189.196 321.876 194.709 313.029L193.011 311.971ZM169.615 332.304C159.254 337.452 146.583 341.395 131.581 344.116L131.938 346.084C147.071 343.339 159.933 339.348 170.505 334.096L169.615 332.304ZM132.739 344.895L129.139 327.695L127.181 328.105L130.781 345.305L132.739 344.895ZM128.348 328.882C138.874 326.871 148.054 324.083 155.876 320.51L155.044 318.69C147.399 322.183 138.379 324.929 127.972 326.918L128.348 328.882ZM155.876 320.51C163.75 316.912 169.868 311.969 174.185 305.665L172.535 304.535C168.452 310.498 162.637 315.222 155.044 318.69L155.876 320.51ZM174.185 305.665C178.53 299.321 180.66 291.173 180.66 281.3H178.66C178.66 290.893 176.59 298.613 172.535 304.535L174.185 305.665ZM180.66 281.3V212.8H178.66V281.3H180.66ZM179.66 211.8H137.96V213.8H179.66V211.8ZM138.96 212.8V196.4H136.96V212.8H138.96ZM137.96 197.4H202.06V195.4H137.96V197.4ZM184.56 145.7C188.671 145.7 191.941 146.956 194.462 149.416L195.858 147.984C192.913 145.11 189.116 143.7 184.56 143.7V145.7ZM194.462 149.416C196.992 151.884 198.26 154.955 198.26 158.7H200.26C200.26 154.445 198.795 150.849 195.858 147.984L194.462 149.416ZM198.26 158.7C198.26 162.445 196.992 165.554 194.453 168.093L195.867 169.507C198.795 166.579 200.26 162.955 200.26 158.7H198.26ZM194.453 168.093C191.931 170.615 188.663 171.9 184.56 171.9V173.9C189.123 173.9 192.923 172.451 195.867 169.507L194.453 168.093ZM184.56 171.9C180.457 171.9 177.189 170.615 174.667 168.093L173.253 169.507C176.197 172.451 179.997 173.9 184.56 173.9V171.9ZM174.676 168.102C172.201 165.565 170.96 162.453 170.96 158.7H168.96C168.96 162.947 170.386 166.569 173.244 169.498L174.676 168.102ZM170.96 158.7C170.96 154.947 172.2 151.874 174.667 149.407L173.253 147.993C170.386 150.859 168.96 154.453 168.96 158.7H170.96ZM174.658 149.416C177.179 146.956 180.449 145.7 184.56 145.7V143.7C180.004 143.7 176.207 145.11 173.262 147.984L174.658 149.416ZM287.782 283.8L288.294 284.659L288.304 284.653L287.782 283.8ZM292.182 266.1L291.317 266.602L291.321 266.608L291.324 266.614L292.182 266.1ZM284.982 260.5L284.548 261.401L284.555 261.404L284.562 261.407L284.982 260.5ZM268.582 255.1L268.331 256.068L268.335 256.069L268.582 255.1ZM250.282 248.7L249.853 249.603L249.858 249.606L250.282 248.7ZM238.182 239.1L237.374 239.689L237.374 239.689L238.182 239.1ZM238.982 208L238.182 207.4L238.182 207.4L238.982 208ZM253.582 197.4L253.214 196.47L253.21 196.471L253.582 197.4ZM299.282 197.1L298.949 198.043L298.949 198.043L299.282 197.1ZM316.182 205.8L317.014 206.355L317.541 205.564L316.778 204.997L316.182 205.8ZM306.782 219.9L306.23 220.734L307.061 221.284L307.614 220.455L306.782 219.9ZM293.182 213.2L292.846 214.142L292.85 214.143L293.182 213.2ZM261.282 213.8L260.719 212.973L260.711 212.979L261.282 213.8ZM258.982 228.9L258.221 229.548L258.234 229.564L258.247 229.578L258.982 228.9ZM267.182 233.8L266.813 234.73L266.82 234.732L266.827 234.735L267.182 233.8ZM283.582 239L283.31 239.962L283.32 239.965L283.582 239ZM301.482 245.6L301.035 246.494L301.039 246.497L301.482 245.6ZM313.382 255.7L312.55 256.255L312.555 256.262L312.56 256.27L313.382 255.7ZM311.082 290.6L310.34 289.929L310.34 289.93L311.082 290.6ZM293.882 301.3L294.187 302.252L294.193 302.25L293.882 301.3ZM245.682 300.5L245.309 301.428L245.316 301.431L245.682 300.5ZM227.682 289.8L226.929 289.141L226.271 289.893L227.023 290.552L227.682 289.8ZM239.582 276.2L240.21 275.422L239.462 274.819L238.829 275.541L239.582 276.2ZM253.782 284.4L253.41 285.329L253.421 285.332L253.782 284.4ZM271.082 288.5C278.185 288.5 283.951 287.251 288.294 284.659L287.269 282.941C283.346 285.283 277.978 286.5 271.082 286.5V288.5ZM288.304 284.653C292.698 281.96 294.982 278.188 294.982 273.4H292.982C292.982 277.412 291.132 280.574 287.259 282.947L288.304 284.653ZM294.982 273.4C294.982 270.393 294.352 267.773 293.039 265.585L291.324 266.614C292.412 268.427 292.982 270.673 292.982 273.4H294.982ZM293.047 265.598C291.696 263.271 289.077 261.294 285.402 259.593L284.562 261.407C288.087 263.039 290.268 264.796 291.317 266.602L293.047 265.598ZM285.416 259.599C281.724 257.822 276.18 256.002 268.829 254.131L268.335 256.069C275.65 257.931 281.04 259.712 284.548 261.401L285.416 259.599ZM268.833 254.132C261.946 252.344 255.906 250.23 250.706 247.794L249.858 249.606C255.191 252.103 261.351 254.256 268.331 256.068L268.833 254.132ZM250.71 247.796C245.634 245.388 241.742 242.287 238.99 238.511L237.374 239.689C240.355 243.78 244.53 247.078 249.853 249.603L250.71 247.796ZM238.99 238.511C236.278 234.79 234.882 229.947 234.882 223.9H232.882C232.882 230.253 234.352 235.543 237.374 239.689L238.99 238.511ZM234.882 223.9C234.882 218.033 236.521 212.948 239.782 208.6L238.182 207.4C234.643 212.119 232.882 217.633 232.882 223.9H234.882ZM239.782 208.6C243.051 204.241 247.755 200.808 253.953 198.328L253.21 196.471C246.742 199.059 241.712 202.693 238.182 207.4L239.782 208.6ZM253.95 198.33C260.208 195.853 267.578 194.6 276.082 194.6V192.6C267.386 192.6 259.756 193.88 253.214 196.47L253.95 198.33ZM276.082 194.6C284.864 194.6 292.48 195.756 298.949 198.043L299.615 196.157C292.884 193.777 285.033 192.6 276.082 192.6V194.6ZM298.949 198.043C305.473 200.349 311.013 203.206 315.586 206.603L316.778 204.997C312.017 201.46 306.291 198.517 299.615 196.157L298.949 198.043ZM315.35 205.245L305.95 219.345L307.614 220.455L317.014 206.355L315.35 205.245ZM307.333 219.066C303.128 216.285 298.52 214.016 293.513 212.257L292.85 214.143C297.71 215.851 302.169 218.049 306.23 220.734L307.333 219.066ZM293.517 212.258C288.525 210.48 282.909 209.6 276.682 209.6V211.6C282.722 211.6 288.105 212.453 292.846 214.142L293.517 212.258ZM276.682 209.6C269.499 209.6 264.11 210.665 260.719 212.973L261.845 214.627C264.72 212.669 269.598 211.6 276.682 211.6V209.6ZM260.711 212.979C257.394 215.287 255.682 218.418 255.682 222.3H257.682C257.682 219.116 259.037 216.58 261.853 214.621L260.711 212.979ZM255.682 222.3C255.682 225.112 256.517 227.549 258.221 229.548L259.743 228.252C258.38 226.651 257.682 224.688 257.682 222.3H255.682ZM258.247 229.578C259.999 231.476 262.898 233.177 266.813 234.73L267.551 232.87C263.732 231.356 261.165 229.79 259.717 228.222L258.247 229.578ZM266.827 234.735C270.734 236.217 276.233 237.959 283.31 239.962L283.854 238.038C276.798 236.041 271.363 234.316 267.537 232.865L266.827 234.735ZM283.32 239.965C290.138 241.818 296.04 243.997 301.035 246.494L301.929 244.706C296.791 242.136 290.759 239.915 283.844 238.035L283.32 239.965ZM301.039 246.497C306.037 248.963 309.86 252.22 312.55 256.255L314.214 255.145C311.304 250.78 307.194 247.304 301.924 244.703L301.039 246.497ZM312.56 256.27C315.278 260.189 316.682 265.372 316.682 271.9H318.682C318.682 265.095 317.219 259.477 314.204 255.13L312.56 256.27ZM316.682 271.9C316.682 279.294 314.548 285.275 310.34 289.929L311.824 291.271C316.416 286.191 318.682 279.706 318.682 271.9H316.682ZM310.34 289.93C306.141 294.581 300.565 298.062 293.571 300.35L294.193 302.25C301.465 299.872 307.356 296.219 311.824 291.27L310.34 289.93ZM293.576 300.348C286.617 302.58 279.121 303.7 271.082 303.7V305.7C279.309 305.7 287.013 304.553 294.187 302.252L293.576 300.348ZM271.082 303.7C261.374 303.7 253.037 302.313 246.047 299.569L245.316 301.431C252.594 304.287 261.19 305.7 271.082 305.7V303.7ZM246.055 299.572C239.007 296.74 233.109 293.228 228.341 289.048L227.023 290.552C231.988 294.905 238.09 298.527 245.309 301.428L246.055 299.572ZM228.434 290.458L240.334 276.858L238.829 275.541L226.929 289.141L228.434 290.458ZM238.954 276.978C243.171 280.379 247.992 283.161 253.41 285.328L254.153 283.472C248.905 281.372 244.259 278.688 240.21 275.422L238.954 276.978ZM253.421 285.332C258.878 287.447 264.769 288.5 271.082 288.5V286.5C264.995 286.5 259.352 285.486 254.143 283.468L253.421 285.332ZM405.004 200.5L405.549 199.662L405.549 199.662L405.004 200.5ZM421.004 219.8L420.087 220.199L420.09 220.205L421.004 219.8ZM420.904 278.3L419.99 277.894L419.988 277.897L420.904 278.3ZM404.704 297.8L405.249 298.638L405.251 298.637L404.704 297.8ZM352.804 298L352.264 298.842L352.273 298.848L352.804 298ZM336.604 278.7L335.688 279.103L335.691 279.109L336.604 278.7ZM336.604 220.2L335.691 219.791L335.688 219.797L336.604 220.2ZM352.904 200.7L353.451 201.537L353.457 201.533L352.904 200.7ZM360.704 220.3L361.537 220.853L361.54 220.848L360.704 220.3ZM360.604 278.1L359.763 278.642L359.768 278.648L360.604 278.1ZM396.904 278.1L396.068 277.552L396.063 277.558L396.904 278.1ZM397.004 220.3L396.163 220.842L396.166 220.846L397.004 220.3ZM378.904 194.6C389.087 194.6 397.587 196.865 404.458 201.338L405.549 199.662C398.287 194.935 389.387 192.6 378.904 192.6V194.6ZM404.458 201.338C411.349 205.824 416.559 212.099 420.087 220.199L421.921 219.401C418.248 210.968 412.792 204.376 405.549 199.662L404.458 201.338ZM420.09 220.205C423.688 228.318 425.504 237.907 425.504 249H427.504C427.504 237.693 425.653 227.815 421.918 219.395L420.09 220.205ZM425.504 249C425.504 260.022 423.656 269.646 419.99 277.894L421.818 278.706C425.618 270.154 427.504 260.244 427.504 249H425.504ZM419.988 277.897C416.394 286.066 411.116 292.41 404.156 296.963L405.251 298.637C412.558 293.857 418.08 287.201 421.819 278.703L419.988 277.897ZM404.158 296.962C397.285 301.436 388.851 303.7 378.804 303.7V305.7C389.156 305.7 397.989 303.364 405.249 298.638L404.158 296.962ZM378.804 303.7C368.751 303.7 360.278 301.5 353.334 297.152L352.273 298.848C359.596 303.433 368.456 305.7 378.804 305.7V303.7ZM353.344 297.158C346.455 292.739 341.177 286.463 337.516 278.291L335.691 279.109C339.497 287.603 345.019 294.194 352.264 298.842L353.344 297.158ZM337.519 278.297C333.92 270.118 332.104 260.428 332.104 249.2H330.104C330.104 260.639 331.954 270.615 335.688 279.103L337.519 278.297ZM332.104 249.2C332.104 238.31 333.919 228.786 337.519 220.603L335.688 219.797C331.956 228.281 330.104 238.09 330.104 249.2H332.104ZM337.516 220.609C341.177 212.437 346.49 206.091 353.451 201.537L352.356 199.863C345.051 204.642 339.497 211.296 335.691 219.791L337.516 220.609ZM353.457 201.533C360.397 196.928 368.862 194.6 378.904 194.6V192.6C368.545 192.6 359.677 195.005 352.351 199.867L353.457 201.533ZM378.904 210C370.535 210 364.138 213.242 359.868 219.752L361.54 220.848C365.403 214.958 371.139 212 378.904 212V210ZM359.87 219.747C355.639 226.129 353.604 236.004 353.604 249.2H355.604C355.604 236.129 357.635 226.738 361.537 220.853L359.87 219.747ZM353.604 249.2C353.604 262.33 355.606 272.198 359.763 278.642L361.444 277.558C357.601 271.602 355.604 262.204 355.604 249.2H353.604ZM359.768 278.648C364.038 285.158 370.435 288.4 378.804 288.4V286.4C371.039 286.4 365.303 283.442 361.44 277.552L359.768 278.648ZM378.804 288.4C387.172 288.4 393.54 285.158 397.744 278.642L396.063 277.558C392.267 283.442 386.568 286.4 378.804 286.4V288.4ZM397.74 278.648C401.968 272.202 404.004 262.262 404.004 249H402.004C402.004 262.138 399.973 271.598 396.068 277.552L397.74 278.648ZM404.004 249C404.004 235.937 402.001 226.133 397.841 219.754L396.166 220.846C400.006 226.734 402.004 236.063 402.004 249H404.004ZM397.844 219.758C393.64 213.242 387.272 210 378.904 210V212C386.668 212 392.367 214.958 396.163 220.842L397.844 219.758ZM440.526 302H439.526V303H440.526V302ZM440.526 196.4V195.4H439.526V196.4H440.526ZM459.826 196.4L460.818 196.277L460.709 195.4H459.826V196.4ZM461.526 210.1L460.533 210.223L460.822 212.547L462.301 210.732L461.526 210.1ZM477.126 197.8L477.549 198.706L477.549 198.706L477.126 197.8ZM517.726 201.9L516.975 202.56L516.983 202.57L517.726 201.9ZM525.126 302V303H526.126V302H525.126ZM502.726 302H501.726V303H502.726V302ZM497.226 213.2L496.61 213.988L496.616 213.993L496.622 213.997L497.226 213.2ZM469.526 218.7L470.203 219.436L470.213 219.426L469.526 218.7ZM462.926 226.2L462.106 225.627L461.926 225.885V226.2H462.926ZM462.926 302V303H463.926V302H462.926ZM441.526 302V196.4H439.526V302H441.526ZM440.526 197.4H459.826V195.4H440.526V197.4ZM458.833 196.523L460.533 210.223L462.518 209.977L460.818 196.277L458.833 196.523ZM462.301 210.732C466.611 205.442 471.692 201.439 477.549 198.706L476.703 196.894C470.559 199.761 465.241 203.958 460.75 209.468L462.301 210.732ZM477.549 198.706C483.422 195.965 489.445 194.6 495.626 194.6V192.6C489.14 192.6 482.829 194.035 476.703 196.894L477.549 198.706ZM495.626 194.6C505.307 194.6 512.357 197.31 516.975 202.56L518.477 201.24C513.361 195.424 505.677 192.6 495.626 192.6V194.6ZM516.983 202.57C521.7 207.797 524.126 215.227 524.126 225H526.126C526.126 214.907 523.618 206.936 518.468 201.23L516.983 202.57ZM524.126 225V302H526.126V225H524.126ZM525.126 301H502.726V303H525.126V301ZM503.726 302V236.1H501.726V302H503.726ZM503.726 236.1C503.726 229.936 503.358 224.931 502.607 221.107L500.644 221.493C501.36 225.136 501.726 229.997 501.726 236.1H503.726ZM502.607 221.107C501.844 217.224 500.289 214.266 497.83 212.403L496.622 213.997C498.563 215.467 499.94 217.909 500.644 221.493L502.607 221.107ZM497.841 212.412C495.456 210.549 491.995 209.7 487.626 209.7V211.7C491.79 211.7 494.728 212.518 496.61 213.988L497.841 212.412ZM487.626 209.7C484.076 209.7 480.696 210.467 477.494 211.998L478.357 213.802C481.289 212.4 484.375 211.7 487.626 211.7V209.7ZM477.494 211.998C474.331 213.511 471.445 215.504 468.838 217.974L470.213 219.426C472.673 217.096 475.387 215.223 478.357 213.802L477.494 211.998ZM468.848 217.964C466.265 220.344 464.017 222.898 462.106 225.627L463.745 226.773C465.568 224.169 467.72 221.723 470.203 219.436L468.848 217.964ZM461.926 226.2V302H463.926V226.2H461.926ZM462.926 301H440.526V303H462.926V301Z" fill="#AC04EC" mask="url(#path-2-outside-1_1_36)"/>
</g>
<defs>
<filter id="filter0_b_1_36" x="-14.84" y="-23.8" width="605.6" height="623.6" filterUnits="userSpaceOnUse" color-interpolation-filters="sRGB">
<feFlood flood-opacity="0" result="BackgroundImageFix"/>
<feGaussianBlur in="BackgroundImageFix" stdDeviation="11.9"/>
<feComposite in2="SourceAlpha" operator="in" result="effect1_backgroundBlur_1_36"/>
<feBlend mode="normal" in="SourceGraphic" in2="effect1_backgroundBlur_1_36" result="shape"/>
</filter>
<clipPath id="clip0_1_36">
<rect width="576" height="576" fill="white"/>
</clipPath>
</defs>
</svg>
